<svg xmlns="http://www.w3.org/2000/svg" viewBox="0 0 429 580"><defs><style>.cls-1{fill:#a0b9cb;stroke:#a0b9cb;stroke-miterlimit:10;stroke-width:2px;}</style></defs><title>cards_4</title><g id="圖層_2" data-name="圖層 2"><g id="圖層_1-2" data-name="圖層 1"><path class="cls-1" d="M40.05,448A36.09,36.09,0,0,1,4,412V40.05A36.09,36.09,0,0,1,40.05,4H239A36.09,36.09,0,0,1,275,40.05V54h3v-14A39.1,39.1,0,0,0,239,1H40.05A39.1,39.1,0,0,0,1,40.05V412A39.1,39.1,0,0,0,40.05,451H64v-3Z"/><path class="cls-1" d="M115.05,68H275V65H115.05a39.1,39.1,0,0,0-39,39.05V448h3V104.05A36.09,36.09,0,0,1,115.05,68Z"/><rect class="cls-1" x="76" y="448" width="3" height="3"/><rect class="cls-1" x="275" y="65" width="3" height="3"/><path class="cls-1" d="M115.05,512A36.09,36.09,0,0,1,79,476V451H76V476A39.1,39.1,0,0,0,115.05,515h36v-3Z"/><path class="cls-1" d="M353,104.05A39.1,39.1,0,0,0,314,65H278v3H314A36.09,36.09,0,0,1,350,104.05v25h3Z"/><path class="cls-1" d="M154,168.05A36.09,36.09,0,0,1,190.05,132H350v-3H190.05A39.1,39.1,0,0,0,151,168.05V512h3Z"/><path class="cls-1" d="M389,129H353v3H389A36.09,36.09,0,0,1,425,168.05V540A36.09,36.09,0,0,1,389,576H190.05A36.09,36.09,0,0,1,154,540V515h-3v25a39.1,39.1,0,0,0,39.05,39H389A39.1,39.1,0,0,0,428,540V168.05A39.1,39.1,0,0,0,389,129Z"/><rect class="cls-1" x="151" y="512" width="3" height="3"/><rect class="cls-1" x="350" y="129" width="3" height="3"/></g></g></svg>