<svg xmlns="http://www.w3.org/2000/svg" viewBox="0 0 490.35 375.07"><defs><style>.cls-1,.cls-2{fill:none;stroke:#a0b9cb;stroke-width:4px;}.cls-1{stroke-miterlimit:10;}.cls-2{stroke-linecap:round;stroke-linejoin:round;}</style></defs><title>cat</title><g id="圖層_2" data-name="圖層 2"><g id="圖層_1-2" data-name="圖層 1"><path class="cls-1" d="M80,112.24C96.33,57.76,132.35-2.3,150,2.24c8.63,2.22,17.16,20.9,13,100,1.82-.39,5-1.1,9-2,9.33-2.11,16.17-3.8,17-4,7.81-1.89,34.14-6.43,69-7,30.67-.49,56.07,2.28,69,5,11.69,2.47,23,6,23,6,3.75,1.18,6.85,2.24,9,3a322.63,322.63,0,0,1,38-49c24.27-25.74,40.61-43.08,53-39,23.79,7.84,16.46,89.24,16,94a243.51,243.51,0,0,1-7,39c8.24,9.07,20.25,24.83,26,47,12.06,46.55-12.2,87.53-19,99-63.68,107.52-287.72,86.71-389,45-41.25-17-60.13-36.61-69-58-13.89-33.49.14-66.52,3-73,17.28-39.14,53.5-52.69,60-55A281.87,281.87,0,0,1,80,112.24Z"/><path class="cls-1" d="M133,208.24c5.76-15.71,32.88-16,38-16,5.85-.05,32.05-.28,38,15,3.74,9.63-2.38,20.88-8,27-15.19,16.54-48.31,14.84-62-2C138.35,231.39,128.92,219.47,133,208.24Z"/><path class="cls-1" d="M273,208.24c5.56-13.69,29.19-13.92,38-14,9.45-.09,32.29-.3,38,13,4,9.24-2.23,20.72-8,27-15.15,16.49-48.23,14.81-62-2C278.54,231.64,268.6,219.17,273,208.24Z"/><path class="cls-1" d="M171,192.24c-10.93,0-20.08,9.67-20,23,.07,12.33,8.07,27.59,19,28s20.36-14.35,21-27C191.73,202.37,182.14,192.22,171,192.24Z"/><path class="cls-1" d="M309,194.24c-12.12.91-20.28,9.69-20,22s8.94,26.53,21,27c12.62.49,23.28-14.41,23-28S321.62,193.3,309,194.24Z"/><path class="cls-2" d="M168,268.24a43.74,43.74,0,0,0,17,9c13.91,3.69,31.62,1.94,42-8,8.89-8.52,12-16,12-16,1.39-3.36,2.29-6.93,4-7s3.09,4,5,8a57.54,57.54,0,0,0,12,16c14.95,13.4,39.39,8.56,41.62,8.08l.38-.08c11.62-2.52,17.67-6.75,21-10"/><path class="cls-1" d="M231,233.24c1.65-3.79,7.76-3.9,13-4,4.19-.07,8.72-.16,11,3a7.14,7.14,0,0,1,1,6c-1.14,3.86-5.57,5.24-8,6s-8.36,2.61-13-1C232.14,241,229.62,236.5,231,233.24Z"/></g></g></svg>