<svg xmlns="http://www.w3.org/2000/svg" viewBox="0 0 435.96 403.51"><defs><style>.cls-1{fill:none;stroke:#a0b9cb;stroke-miterlimit:10;stroke-width:4px;}</style></defs><title>dream_2</title><g id="圖層_2" data-name="圖層 2"><g id="圖層_1-2" data-name="圖層 1"><path class="cls-1" d="M429.55,120.51c-15.44-39-63.58-43.21-69.39-43.62A86.42,86.42,0,0,0,327.35,81c.11-1.58.18-3.18.18-4.79,0-40.91-37.45-74.2-83.48-74.2-32.47,0-60.67,16.57-74.46,40.7a75.74,75.74,0,0,0-42.67-13.22c-43.95,0-79.7,38.06-79.7,84.85,0,.89,0,1.78.05,2.67a82.85,82.85,0,0,0-16.83,9.54,84.5,84.5,0,0,0-13,12.48c-6.8,8.39-20.92,32.08-13.13,55.69,7.45,22.56,32.76,38.56,61.84,37.1,1.35,8.43,6.88,36.06,30.22,51.53,25.5,16.89,57,9.18,74.89,4.81a136.34,136.34,0,0,0,28.17-10.31,122.45,122.45,0,0,0,16.49,8.24c10.48,4.3,46,18.88,83.13,4.13,20.75-8.26,34.2-22.6,41.9-33,21.79,7.62,45,1.14,57-15.12,12.2-16.46,7.87-36.07,7.12-39.2C430.8,181.68,440.41,147.93,429.55,120.51Z"/><path class="cls-1" d="M269.92,363.35a16.8,16.8,0,0,0-13.62,13.09c-1.27,6.95,3.17,12.29,6.54,16.35,3.1,3.74,7.44,9,13.08,8.72,7.94-.34,14.57-11.35,14.17-20.71a18.61,18.61,0,0,0-4.91-12C284.46,368,278.47,361.93,269.92,363.35Z"/><path class="cls-1" d="M205.43,353.44c5.88,7.33,10.9,9.43,12.17,9.93.76.3,12.42,4.73,18.55-.68,2.8-2.46,1.72-4.56,6.19-11,3.31-4.77,4.4-4.34,5.49-6.87,3.36-7.78-4.23-18-6.18-20.62-2.3-3.09-7.15-9.42-16.16-12.12a30.24,30.24,0,0,0-17.91.4c-4.52,1.4-9.23,2.87-12,6.92C187.81,331,204.25,352,205.43,353.44Z"/><path class="cls-1" d="M106.65,176.85c-1.12-4.56,10.61-11.73,11.68-12.37,6.31-3.8,11.13-4.35,11.68-7.56.37-2.18-1.52-3.92-3.44-6.18-6.87-8.11-11.47-20-8.93-22.67,2.76-2.95,15,3.7,15.8,4.12,6.22,3.42,7.55,6.17,11.68,6.18,2.49,0,3.29-1,10.31-4.8,12.32-6.73,13.93-5.89,14.43-5.5s1.24,1.46,0,8.24c-2.1,11.44-5.19,14.6-3.44,17.18,1.34,2,3.75,1,13.74,2.75,6.45,1.12,9.68,1.71,10.31,3.43,1.16,3.22-5.12,8.82-9.62,11.68-5.5,3.5-8.1,2.74-11,6.18-2.3,2.73-2.15,5-3.44,10.31-.93,3.86-4.41,18.25-8.93,18.55-2.76.18-5.74-4.92-11.68-15.11-1.87-3.22-2.36-4.39-4-5.72-4-3.17-8.39-2.31-14.52-2.53C121.34,182.81,107.75,181.36,106.65,176.85Z"/><path class="cls-1" d="M252.88,197.32c2.18-1.58,8.54,3.09,9.11,3.52,3.4,2.53,4.74,5,6.56,4.56,1.24-.27,1.76-1.66,2.54-3.17,2.82-5.42,8.11-10.44,10.11-9.68,2.17.83,1.3,8.8,1.25,9.3-.47,4.05-1.64,5.35-.75,7.55.54,1.33,1.24,1.54,4.8,4.43,6.25,5.09,6.16,6.13,6.06,6.48s-.5,1-4.38,1.79c-6.54,1.38-8.89.42-9.88,1.91-.76,1.14.28,2.22,1.53,7.91.81,3.67,1.2,5.52.41,6.22-1.45,1.32-5.8-.8-8.3-2.57-3.05-2.16-3.22-3.71-5.68-4.5-1.95-.63-3.1-.06-6.22.42-2.26.34-10.66,1.62-11.81-.71-.69-1.43,1.37-4.13,5.5-9.5,1.3-1.7,1.81-2.21,2.16-3.39.82-2.8-.6-5-1.82-8.27S250.72,198.89,252.88,197.32Z"/><path class="cls-1" d="M241.13,71c2.28-.7,5.21,2.29,7.05,4.16,4.25,4.33,4.55,7.93,6.62,8,1.85,0,2.19-2.81,5.74-5.93,3.1-2.72,8.25-5.31,10.27-3.73s.55,7.58-.65,10.6c-1.54,3.87-3.44,5.2-2.75,6.87s3.24,1.1,6.87,3.43c.68.44,5.34,3.51,4.81,6.19-.59,3-7.44,4-8.24,4.12-5.1.74-7.33-1-8.85.58-1.67,1.71.57,4.29-.77,9-.68,2.42-2.48,6.08-4.81,6.18-1.52.07-2.71-1.41-4.81-4.12-3.67-4.73-2.8-5.88-4.77-7.34-3.11-2.3-5.69.27-12.4-1.59-2.23-.62-6.14-1.7-6.57-4-.4-2.11,2.24-4.35,4.5-6.27,3.81-3.22,5.4-2.67,6.5-4.7,1.51-2.79-1-4.74-1.2-10.63C237.54,78.06,238.31,71.88,241.13,71Z"/></g></g></svg>