<svg width="104" height="99" viewBox="0 0 104 99" fill="none" xmlns="http://www.w3.org/2000/svg">
<path d="M68.1193 15.8254C66.1611 15.9363 66.0626 17.0574 65.9432 18.9296C65.8268 17.0574 65.7253 15.9363 63.7671 15.8254C65.7253 15.7115 65.8268 14.2547 65.9432 12.3854C66.0477 14.2547 66.1462 15.7115 68.1193 15.8254Z" fill="#484848"/>
<path d="M85.7316 83.8282C83.7734 83.9392 83.6749 85.0603 83.5555 86.9325C83.4391 85.0603 83.3376 83.9392 81.3794 83.8282C83.3376 83.7144 83.4391 82.2576 83.5555 80.3882C83.66 82.2576 83.7585 83.7144 85.7316 83.8282Z" fill="#484848"/>
<path d="M83.0457 68.0197C81.3471 68.1193 81.2546 69.0896 81.1591 70.7142C81.0546 69.0896 80.968 68.1193 79.2695 68.0197C80.968 67.923 81.0606 66.6568 81.1591 65.0378C81.2546 66.6568 81.3531 67.923 83.0457 68.0197Z" fill="#484848"/>
<path d="M89.4236 81.3727C87.8893 81.4609 87.8117 82.3373 87.7191 83.8026C87.6266 82.3373 87.549 81.4609 86.0146 81.3727C87.549 81.2845 87.6266 80.1436 87.7191 78.6811C87.8206 80.1436 87.8893 81.2845 89.4236 81.3727Z" fill="#484848"/>
<path d="M77.3731 76.3223C76.4239 76.3764 76.3761 76.9198 76.3194 77.8275C76.2627 76.9198 76.2119 76.3764 75.2627 76.3223C76.2119 76.2683 76.2627 75.5626 76.3194 74.655C76.3821 75.5512 76.4299 76.2683 77.3731 76.3223Z" fill="#484848"/>
<path d="M76.8002 17.8484C76.033 17.8882 75.9942 18.278 75.9464 18.9296C75.9017 18.278 75.8629 17.8882 75.0957 17.8484C75.8629 17.8114 75.9017 17.3021 75.9464 16.6533C75.9942 17.3021 76.033 17.8114 76.8002 17.8484Z" fill="#484848"/>
<path d="M69.4746 17.8854L70.0895 17.5809L69.9701 18.2268L70.4656 18.6906L69.782 18.7845L69.4746 19.3791L69.1671 18.7845L68.4775 18.6906L68.979 18.2268L68.8596 17.5809L69.4746 17.8854Z" fill="#484848"/>
<path d="M82.1883 78.8774L83.4629 78.2401L83.2151 79.5859L84.245 80.5476L82.8241 80.7439L82.1883 81.976L81.5525 80.7439L80.1196 80.5476L81.1584 79.5859L80.9137 78.2401L82.1883 78.8774Z" fill="#484848"/>
<path d="M90.5462 76.0321L91.8208 75.3947L91.5731 76.7406L92.6029 77.7023L91.182 77.8986L90.5462 79.1306L89.9104 77.8986L88.4775 77.7023L89.5163 76.7406L89.2716 75.3947L90.5462 76.0321Z" fill="#484848"/>
<path d="M85.266 73.366L86.1585 73.5737L85.448 74.12L85.5167 74.9936L84.7466 74.5184L83.8988 74.8541L84.1376 74.0062L83.5376 73.3376L84.46 73.2949L84.9376 72.5523L85.266 73.366Z" fill="#484848"/>
<path d="M38.8985 8.68647C38.9269 8.78982 38.9116 8.89967 38.8557 8.99231C38.7999 9.08494 38.708 9.15291 38.6 9.18155C33.8908 10.3932 29.4516 12.4101 25.4986 15.1339C20.2767 18.7316 16.0232 23.4572 13.0865 28.9236C10.1498 34.39 8.61334 40.4417 8.60303 46.5831C8.60303 47.5705 8.64482 48.5549 8.72542 49.528C8.7299 49.5811 8.72333 49.6345 8.70608 49.6852C8.68882 49.7358 8.66123 49.7828 8.62489 49.8232C8.58855 49.8637 8.54417 49.8969 8.49431 49.9209C8.44445 49.945 8.3901 49.9594 8.33437 49.9634H8.31348C8.20187 49.9689 8.09238 49.9328 8.00823 49.8627C7.92408 49.7925 7.8719 49.694 7.86273 49.5878C7.78214 48.5891 7.73438 47.5961 7.73438 46.5803C7.74595 40.3087 9.31574 34.1288 12.3152 28.5468C15.3147 22.9647 19.6585 18.1392 24.9911 14.4653C29.0256 11.6807 33.5582 9.61939 38.3672 8.38202C38.4772 8.35385 38.5944 8.36786 38.6937 8.42104C38.793 8.47422 38.8666 8.56235 38.8985 8.66655V8.68647Z" fill="#484848"/>
<path d="M44.439 71.2349C43.7933 71.2346 43.1482 71.1956 42.5077 71.1182C40.3861 70.7829 38.2915 70.3076 36.239 69.6956C34.5286 69.2034 33.3315 68.7993 32.3584 68.4778L32.2987 68.438C30.9996 67.943 29.6456 67.5908 28.2629 67.388C27.3195 67.2606 26.3679 67.1969 25.4151 67.1974C24.8718 67.1974 24.3226 67.2173 23.7823 67.26C23.6841 67.2676 23.5868 67.2376 23.5118 67.1768C23.4368 67.116 23.3902 67.0292 23.3823 66.9356C23.3744 66.8421 23.4058 66.7493 23.4696 66.6778C23.5334 66.6063 23.6244 66.5619 23.7226 66.5544C24.2838 66.5117 24.848 66.4889 25.4092 66.4889C26.401 66.4894 27.3915 66.5569 28.3733 66.6909C29.8049 66.8946 31.2072 67.2545 32.5524 67.7636H32.5793C33.5435 68.0908 34.7405 68.4977 36.4808 68.9985C38.4987 69.6074 40.5583 70.0828 42.645 70.4211C43.3471 70.4905 44.0525 70.5256 44.7584 70.5264C46.3108 70.5255 47.858 70.3565 49.3703 70.0228C49.8527 69.9389 50.3011 69.7291 50.6659 69.4167C50.9768 69.1196 51.2116 68.7581 51.3519 68.3603C51.4922 67.9625 51.5343 67.5393 51.4748 67.1234C51.3196 66.102 50.3286 65.2683 47.9495 64.1529C45.2629 62.8868 42.5495 61.9108 38.0987 61.2592C37.6898 61.1995 37.2868 61.1483 36.8838 61.0971H36.845C34.9077 60.8495 32.9226 60.5963 30.6659 59.4496C29.2321 58.7039 27.9297 57.7486 26.8062 56.6186C26.7584 56.5702 26.7077 56.5247 26.6599 56.482C26.6121 56.4393 26.5345 56.3682 26.4778 56.3056C22.2987 52.4331 15.5286 50.026 8.86587 50.026H8.41811C8.32519 50.0265 8.23535 49.9943 8.1659 49.9354C8.09645 49.8766 8.05231 49.7953 8.04199 49.7073V49.6589C8.04434 49.5656 8.0851 49.4769 8.15546 49.4119C8.22583 49.347 8.32017 49.311 8.41811 49.3118H8.82707C15.6927 49.3118 22.6599 51.7958 26.9942 55.7963L27.3226 56.1064C28.3975 57.1855 29.6423 58.0984 31.0121 58.8123C33.1763 59.9191 35.0778 60.1467 36.9196 60.3658L37.2181 60.4057C37.5405 60.4455 37.8659 60.4882 38.1942 60.5365C42.7465 61.2023 45.5106 62.201 48.2599 63.4928C50.8957 64.7334 52.0032 65.7178 52.2002 67.0068C52.273 67.5371 52.2173 68.0764 52.0372 68.5829C51.8571 69.0895 51.5575 69.55 51.1614 69.9289C50.6975 70.3283 50.1276 70.599 49.5136 70.7114C47.9072 71.0586 46.2653 71.2352 44.6181 71.2377L44.439 71.2349Z" fill="#484848"/>
<path d="M26.8515 56.5531C27.9681 57.6775 29.2635 58.6271 30.6903 59.3671C32.938 60.5052 34.9201 60.7613 36.8395 61.0089C37.2544 61.0601 37.6724 61.1113 38.0932 61.1739C42.5709 61.8255 45.2574 62.8071 47.9679 64.0732C50.3798 65.2114 51.3828 66.065 51.55 67.1092C51.6118 67.5387 51.5682 67.9761 51.4226 68.3869C51.2771 68.7976 51.0336 69.1706 50.7112 69.4765C50.3358 69.7984 49.8737 70.0141 49.3768 70.0996C47.163 70.5896 44.8791 70.7252 42.6186 70.5008C40.529 70.1624 38.4664 69.6871 36.4455 69.0781C34.7082 68.5774 33.5052 68.1705 32.538 67.8404C31.1921 67.3321 29.7901 66.9703 28.3589 66.7621C26.8256 66.5541 25.2728 66.5092 23.7291 66.6283C23.6833 66.6185 23.6358 66.619 23.5903 66.6299C23.5448 66.6409 23.5026 66.6618 23.4672 66.6912C23.4318 66.7206 23.4042 66.7575 23.3866 66.7989C23.3689 66.8403 23.3618 66.8852 23.3657 66.9297C23.3697 66.9743 23.3846 67.0173 23.4092 67.0554C23.4339 67.0934 23.4676 67.1254 23.5076 67.1487C23.5477 67.172 23.5929 67.186 23.6397 67.1895C23.6865 67.193 23.7334 67.186 23.7768 67.1689C25.2777 67.0522 26.7875 67.0951 28.2783 67.297C29.6662 67.5012 31.0252 67.8554 32.3291 68.3526C33.2992 68.6798 34.5082 69.0895 36.2634 69.596C38.3109 70.2075 40.4005 70.6829 42.5171 71.0187C43.21 71.1033 43.9082 71.1413 44.6067 71.1325C46.248 71.1321 47.884 70.9565 49.4843 70.6089C50.0866 70.5065 50.6475 70.2475 51.1052 69.8606C51.4909 69.4916 51.7828 69.0433 51.9587 68.5501C52.1347 68.0569 52.1898 67.5319 52.1201 67.0153C51.9261 65.7548 50.8335 64.7846 48.2395 63.5611C45.4932 62.2722 42.741 61.2848 38.1977 60.6134C37.7709 60.5508 37.35 60.4967 36.9291 60.4426C34.9918 60.2093 33.138 59.976 30.9918 58.8777C29.6155 58.1608 28.3647 57.2441 27.2843 56.1604L26.9261 55.8532C22.4783 51.7502 15.2276 49.2919 8.41862 49.3943C8.33946 49.3943 8.26353 49.4243 8.20755 49.4776C8.15157 49.531 8.12012 49.6034 8.12012 49.6788V49.7016C8.13025 49.77 8.16613 49.8325 8.22105 49.8775C8.27597 49.9225 8.34619 49.947 8.41862 49.9463C15.1022 49.841 22.1888 52.2396 26.5321 56.2515C26.6276 56.3539 26.747 56.4478 26.8515 56.5531Z" fill="#484848"/>
<path d="M29.3975 79.3782C28.9024 79.3785 28.4094 79.3153 27.9319 79.1904C26.9169 78.9093 25.9881 78.3988 25.2244 77.7023C24.4487 77.0544 23.6067 76.4825 22.711 75.9951H22.6901C21.7569 75.4847 20.7941 75.0249 19.8065 74.618C19.7666 74.603 19.7301 74.5808 19.699 74.5525C19.6533 74.505 19.6215 74.4469 19.6068 74.384C19.5922 74.321 19.5951 74.2555 19.6155 74.194C19.641 74.1227 19.6892 74.0608 19.7534 74.017C19.8177 73.9731 19.8947 73.9494 19.9737 73.9493C20.0144 73.9488 20.0549 73.9555 20.0931 73.9692C20.3617 74.0774 20.6214 74.1912 20.8781 74.305L20.908 74.3221C22.6523 75.0584 24.2776 76.0279 25.7349 77.2015C26.4094 77.8177 27.2279 78.2721 28.1229 78.5274C28.541 78.637 28.9729 78.6916 29.4065 78.6896C30.0552 78.6749 30.7004 78.5958 31.3319 78.4534C32.0219 78.3153 32.7035 78.1415 33.3737 77.9328C34.8065 77.5031 35.7617 77.1987 36.4871 76.9568C36.8543 76.8373 37.1707 76.7406 37.4334 76.6723C38.9856 76.2 40.5408 76.0406 43.6423 75.7248C46.3289 75.4403 47.6901 75.3094 48.7169 75.3094H48.9378C49.5813 75.309 50.2234 75.2557 50.8572 75.15C51.6352 75.0138 52.395 74.7962 53.1229 74.5013L53.1558 74.4842C54.2543 74.0461 55.4722 73.8725 57.0184 73.6534H57.0752C58.6483 73.4315 60.6005 73.1555 63.4125 72.5153C65.568 72.0136 67.623 71.1794 69.4961 70.0456C69.7755 69.8845 69.9818 69.6299 70.0745 69.3315C70.1673 69.0331 70.1398 68.7124 69.9975 68.4323C69.9004 68.2419 69.7812 68.0625 69.6423 67.8974C68.7289 66.8275 67.1916 66.6027 66.0602 66.6027C64.8042 66.617 63.5609 66.8444 62.3886 67.2742C62.1236 67.3671 61.8687 67.4844 61.6274 67.6242C61.5308 67.6821 61.4312 67.7353 61.3289 67.7835C61.3289 67.7978 60.9498 67.9543 60.9468 67.9571C60.6811 68.0652 59.7229 68.125 58.314 68.125C56.9647 68.125 55.3289 68.0681 53.7319 67.9628C53.6411 67.9524 53.5578 67.9099 53.4985 67.8436C53.4391 67.7774 53.4081 67.6924 53.4114 67.6053C53.4148 67.5183 53.4524 67.4356 53.5167 67.3738C53.5811 67.3119 53.6675 67.2754 53.7587 67.2714C55.3647 67.3767 56.8961 67.4307 58.2065 67.4307C59.0214 67.4589 59.8374 67.4199 60.6453 67.3141C60.8334 67.2344 60.9826 67.1633 60.9826 67.1604C61.0768 67.1184 61.1676 67.0699 61.2543 67.0153C61.5408 66.8561 61.8402 66.7191 62.1498 66.6056C63.389 66.1521 64.703 65.9122 66.0304 65.8971C67.3438 65.8971 69.1378 66.1816 70.2334 67.4506C70.3851 67.6389 70.5152 67.8421 70.6214 68.0567C70.848 68.496 70.8937 69.0002 70.7494 69.4701C70.6052 69.9399 70.2816 70.3411 69.8423 70.5947C67.9032 71.7716 65.7743 72.6367 63.5408 73.1555C60.705 73.8014 58.7289 74.0831 57.1438 74.3107L56.8841 74.3477C55.3916 74.5668 54.3916 74.7147 53.4334 75.096L53.3975 75.1102C52.6184 75.4281 51.8044 75.6619 50.9707 75.8073C50.2896 75.9209 49.5994 75.9781 48.908 75.978H48.7169C47.7498 75.978 46.4184 76.1089 43.7378 76.3878C40.6871 76.6979 39.1558 76.8544 37.6781 77.3011C37.4184 77.3808 37.1199 77.4775 36.7468 77.5999L36.517 77.6738C35.8513 77.8872 34.9408 78.1803 33.6184 78.5758C32.9252 78.7929 32.2196 78.9724 31.505 79.1136C30.8199 79.2687 30.1195 79.3545 29.4155 79.3696L29.3975 79.3782Z" fill="#484848"/>
<path d="M70.1668 67.5018C68.3608 65.3849 64.3817 65.8487 62.1548 66.6739C61.8615 66.7845 61.5771 66.9158 61.3041 67.0665C61.2074 67.1209 61.1078 67.1703 61.0056 67.2145C61.0056 67.2145 60.8503 67.2913 60.6563 67.371C60.3877 67.4705 57.8772 67.6043 53.7608 67.334C53.7231 67.3287 53.6846 67.3308 53.6478 67.3403C53.611 67.3498 53.5767 67.3664 53.5469 67.389C53.5171 67.4117 53.4926 67.44 53.4747 67.4721C53.4569 67.5043 53.4463 67.5395 53.4434 67.5758C53.4405 67.612 53.4455 67.6484 53.458 67.6827C53.4706 67.717 53.4904 67.7485 53.5162 67.7752C53.5421 67.8019 53.5734 67.8233 53.6083 67.8379C53.6432 67.8526 53.6809 67.8602 53.719 67.8604C57.3847 68.1022 60.4205 68.0538 60.8832 67.8604C61.0951 67.7721 61.2593 67.6925 61.2623 67.6896C61.3649 67.643 61.4645 67.5908 61.5608 67.5331C61.8057 67.3908 62.0646 67.2717 62.3339 67.1775C64.4056 66.4007 68.0712 65.9369 69.6862 67.8262C69.8308 67.9948 69.9541 68.1792 70.0533 68.3754C70.2012 68.6726 70.2285 69.0114 70.1298 69.3267C70.0311 69.6419 69.8136 69.9111 69.519 70.0825C67.6388 71.2222 65.5757 72.0612 63.4115 72.5665C60.6056 73.2038 58.6354 73.4827 57.0683 73.7046C55.5011 73.9266 54.2921 74.0944 53.2026 74.5326H53.1638C52.4305 74.8311 51.6646 75.0506 50.8802 75.187C50.1907 75.3045 49.4909 75.3578 48.7906 75.3464H48.719C47.713 75.3464 46.3578 75.4858 43.6623 75.7618C40.5638 76.0776 39.0086 76.2369 37.4712 76.7036C37.2086 76.7832 36.8921 76.88 36.528 77.0023C35.8354 77.2271 34.8862 77.5344 33.4115 77.9783C32.7387 78.1884 32.0541 78.3622 31.3608 78.499C30.1011 78.7522 29.1638 78.8461 28.1101 78.573C27.2045 78.3233 26.3739 77.8728 25.6862 77.2584C24.2348 76.091 22.6166 75.1263 20.8802 74.3932L21.1787 74.655C21.0892 74.5753 20.9936 74.4985 20.9041 74.4216C20.8834 74.4024 20.8591 74.3869 20.8324 74.3761C20.5757 74.2623 20.316 74.1485 20.0563 74.0404C19.9979 74.03 19.9376 74.0365 19.8831 74.0589C19.8286 74.0814 19.7824 74.1189 19.7503 74.1665C19.7183 74.2142 19.7019 74.2699 19.7032 74.3265C19.7045 74.3831 19.7235 74.438 19.7578 74.4842C19.783 74.5058 19.8111 74.5239 19.8414 74.5383C20.8326 74.9458 21.7993 75.4055 22.7369 75.9154H22.719L22.7548 75.9382C23.6565 76.4249 24.5046 76.9968 25.2862 77.6454C26.0446 78.3339 26.9662 78.8376 27.9727 79.1136C28.4446 79.2361 28.9314 79.2983 29.4205 79.2985C30.1177 79.2844 30.8113 79.1986 31.4892 79.0424C32.1958 78.9021 32.8934 78.7235 33.5787 78.5075C35.0712 78.0636 36.0086 77.7563 36.7071 77.5316L37.6384 77.247C39.1309 76.7975 40.6563 76.6381 43.716 76.328C46.3817 76.0435 47.728 75.9183 48.7041 75.9183H48.7727C49.506 75.9254 50.2385 75.8683 50.9608 75.7476C51.7875 75.6054 52.5946 75.3744 53.3668 75.059L53.4056 75.0419C54.4265 74.635 55.4951 74.4899 57.1309 74.2509C58.716 74.0261 60.6921 73.7445 63.525 73.1128C65.7472 72.5911 67.8647 71.726 69.7936 70.552C70.2125 70.3078 70.521 69.9236 70.659 69.4744C70.7969 69.0252 70.7545 68.5431 70.5399 68.1221C70.4388 67.9034 70.3137 67.6955 70.1668 67.5018Z" fill="#484848"/>
<path d="M71.2359 68.1534C71.1864 68.154 71.1374 68.1449 71.0917 68.1268C71.046 68.1087 71.0047 68.082 70.9702 68.0481C70.9062 67.9824 70.8707 67.896 70.8707 67.8063C70.8707 67.7166 70.9062 67.6302 70.9702 67.5644C71.2866 67.2543 71.7971 66.6454 71.6866 66.065C71.5105 65.0634 69.5971 64.6423 68.9702 64.5029C68.427 64.3831 67.8711 64.3229 67.3135 64.3236C65.8478 64.3236 64.5404 64.7334 63.1553 65.1772C62.6777 65.3366 62.1732 65.4845 61.7374 65.6069C59.3541 66.2557 56.8876 66.5851 54.409 66.5856C53.9493 66.5856 53.4867 66.5856 53.027 66.5515C52.9311 66.5457 52.8411 66.5055 52.7752 66.439C52.7093 66.3724 52.6723 66.2845 52.6717 66.193C52.6785 66.1019 52.7209 66.0165 52.7905 65.9538C52.8602 65.8911 52.952 65.8556 53.0478 65.8544C53.5016 65.8772 53.9583 65.8885 54.4061 65.8885C56.815 65.8891 59.2122 65.5693 61.5284 64.9382C62.021 64.7988 62.5075 64.6537 62.9255 64.5143C63.8028 64.2159 64.7004 63.9744 65.612 63.7916C64.9016 63.2923 64.0567 62.9963 63.1762 62.938C62.4179 62.9401 61.6678 63.0872 60.9702 63.3705C60.2117 63.6703 59.4028 63.838 58.5822 63.8655C58.2646 63.8638 57.9478 63.8343 57.6359 63.7773C57.1997 63.6976 56.7756 63.5667 56.3732 63.3875L56.1792 63.3164C55.0653 62.9108 53.8787 62.7175 52.6867 62.7473C51.2637 62.7666 49.8473 62.9345 48.4628 63.2481H48.3822C48.2964 63.2478 48.2134 63.2193 48.1471 63.1675C48.0807 63.1157 48.0352 63.0437 48.018 62.9636C47.9963 62.8716 48.0132 62.7752 48.0651 62.6949C48.117 62.6146 48.1997 62.5569 48.2956 62.5339C49.7376 62.2126 51.2119 62.0409 52.6926 62.0218C53.9864 62 55.2722 62.2194 56.4777 62.6677L56.6747 62.7502C57.0261 62.9059 57.3959 63.0206 57.7762 63.0916C58.0399 63.1398 58.3077 63.1645 58.5762 63.1656C59.3131 63.1371 60.0389 62.984 60.7195 62.7132C61.5025 62.3981 62.3441 62.2365 63.1941 62.238C64.3643 62.275 65.5165 62.7445 66.6359 63.6351L66.6568 63.6607C66.8717 63.6436 67.0866 63.6351 67.2986 63.6351C67.9154 63.6357 68.5303 63.7025 69.1314 63.8342C69.8866 64.0021 72.1493 64.5029 72.415 65.9654C72.6001 66.9498 71.818 67.7579 71.4896 68.0624C71.4194 68.121 71.3293 68.1534 71.2359 68.1534Z" fill="#484848"/>
<path d="M72.3401 65.9796C72.0715 64.557 69.8446 64.0761 69.1132 63.9139C68.3062 63.7379 67.4758 63.6804 66.6506 63.7432C66.5749 63.7516 66.5055 63.7872 66.4565 63.8428L66.3879 63.9168L66.5312 63.7546H66.4625H66.5222L66.5789 63.7005C65.4774 62.8213 64.3431 62.3575 63.2088 62.3205C62.3629 62.3185 61.5253 62.4792 60.7461 62.7929C59.8297 63.0973 58.955 63.3875 57.761 63.1713C57.3744 63.0997 56.9984 62.9831 56.6416 62.8242L56.4476 62.7445C54.4237 61.9478 51.6983 61.9165 48.3192 62.6335C48.2468 62.6523 48.1845 62.6964 48.1446 62.7571C48.1048 62.8177 48.0904 62.8904 48.1043 62.9607C48.1246 63.0287 48.1707 63.087 48.2336 63.1243C48.2965 63.1616 48.3717 63.1753 48.4446 63.1628C51.7073 62.4628 54.3222 62.4941 56.2267 63.2481L56.4147 63.3221C56.8096 63.498 57.2257 63.627 57.6535 63.7062C59.0088 63.9509 59.9938 63.6208 60.9371 63.3022C61.6484 63.0151 62.4125 62.8662 63.1849 62.864C64.1101 62.9242 64.9964 63.2418 65.7341 63.7773C65.7939 63.8175 65.8678 63.8339 65.9401 63.8229H65.9759L65.8267 63.8428L65.9222 63.9111C65.8585 63.8696 65.7804 63.8533 65.7043 63.8655C64.7677 64.0474 63.846 64.2928 62.9461 64.5996C62.4923 64.7419 62.0237 64.8842 61.5461 65.0236C58.7839 65.7756 55.9104 66.0871 53.0416 65.9455C52.9678 65.945 52.8965 65.9707 52.8413 66.0175C52.7862 66.0642 52.7512 66.1288 52.7431 66.1987C52.7429 66.2704 52.771 66.3395 52.8219 66.3923C52.8728 66.445 52.9428 66.4775 53.0177 66.4832C55.945 66.6281 58.8772 66.3098 61.6953 65.5414C62.1819 65.4049 62.6565 65.2569 63.1132 65.1118C64.9938 64.5228 66.7729 63.9737 68.967 64.4431C69.6058 64.5854 71.57 65.0122 71.755 66.0707C71.8715 66.6796 71.3729 67.2942 71.0177 67.6441C70.9715 67.6957 70.9461 67.7612 70.9461 67.8291C70.9461 67.8969 70.9715 67.9625 71.0177 68.014C71.0731 68.0636 71.1462 68.0913 71.2222 68.0913C71.2982 68.0913 71.3713 68.0636 71.4267 68.014C71.9252 67.5844 72.4983 66.8133 72.3401 65.9796ZM65.97 63.9424L65.9998 63.9623L65.97 63.9424Z" fill="#484848"/>
<path d="M27.2655 25.7811C26.8984 24.4296 28.1342 22.3866 29.8715 22.0822C30.7372 21.9257 31.961 22.1618 32.2148 22.8305C32.4297 23.3825 31.9163 24.0227 31.7342 24.2873C31.373 24.7568 31.1043 24.7994 29.9103 25.5307C28.6028 26.3245 28.2237 26.6887 27.8207 26.5294C27.4178 26.3701 27.3252 25.9433 27.2655 25.7811Z" fill="#484848"/>
<path d="M47.4362 31.2725C47.2929 30.4986 49.2273 29.0276 51.0392 29.3434C51.7839 29.4926 52.4521 29.8814 52.9317 30.4446C53.5262 31.1019 53.8357 31.9504 53.7974 32.8175C53.7973 33.0086 53.7524 33.1971 53.6661 33.3695C53.5541 33.535 53.4084 33.6775 53.2376 33.7884C53.0669 33.8993 52.8746 33.9765 52.672 34.0154C52.5287 34.0467 52.0093 34.152 51.1019 33.7622C50.1944 33.3724 50.0899 32.9854 49.0123 32.2655C47.9347 31.5457 47.4959 31.6111 47.4362 31.2725Z" fill="#484848"/>
<path d="M28.3132 38.0131C27.7788 36.9632 29.4475 34.428 31.7191 33.5204C35.0833 32.1432 39.94 34.2231 41.149 37.5038C41.7281 39.0744 41.6475 41.399 40.3609 42.2469C38.8326 43.2542 36.0833 41.8429 35.9102 42.2469C35.737 42.6509 38.1251 43.4619 37.9997 44.2386C37.8743 45.0666 34.9579 45.8263 32.5042 44.9898C29.8027 44.085 28.1191 41.4076 28.5788 40.7588C28.9311 40.2893 30.5072 40.9096 30.6684 40.5084C30.7311 40.3662 30.5699 40.1585 29.6206 39.2622C28.4803 38.181 28.4176 38.1867 28.3132 38.0131Z" fill="#484848"/>
<path d="M20.0599 37.3899C19.9076 38.2663 18.9733 44.085 21.8897 45.8775C23.0479 46.5945 25.1076 46.8307 25.5584 46.8762C27.0957 47.0327 28.2032 46.8221 30.0121 47.377C30.4593 47.5143 30.8962 47.6807 31.3196 47.8749C32.3964 48.3758 33.3749 49.0495 34.2121 49.8666C35.6599 51.2068 37.9733 52.5896 39.5852 52.9965C40.3942 53.1956 43.1076 53.6566 47.1823 50.5154" stroke="#484848" stroke-width="3" stroke-miterlimit="10" stroke-linecap="round"/>
<path d="M52 97.3178C79.6142 97.3178 102 75.9802 102 49.6589C102 23.3376 79.6142 2 52 2C24.3858 2 2 23.3376 2 49.6589C2 75.9802 24.3858 97.3178 52 97.3178Z" stroke="#484848" stroke-width="3" stroke-miterlimit="10"/>
<path d="M67.7021 27.5594C70.5484 28.6923 73.0104 30.5538 74.8155 32.9378C76.6207 35.3218 77.6986 38.1354 77.93 41.0671C78.1615 43.9989 77.5374 46.9346 76.1269 49.5492C74.7163 52.1638 72.5743 54.3555 69.938 55.8816C69.7958 55.9654 69.6848 56.0897 69.6208 56.2369C69.5568 56.3841 69.5429 56.5467 69.5812 56.7018C69.6195 56.857 69.708 56.9967 69.8341 57.1012C69.9603 57.2057 70.1178 57.2698 70.2842 57.2844C70.7529 57.3214 71.2305 57.3413 71.7081 57.3413C75.4177 57.341 79.0218 56.1647 81.9529 53.9974C84.8839 51.8302 86.9755 48.7952 87.8981 45.3705C88.8207 41.9457 88.522 38.3257 87.049 35.0805C85.576 31.8354 83.0124 29.1494 79.7619 27.4456" stroke="#484848" stroke-width="3" stroke-miterlimit="10"/>
</svg>
