<svg width="184" height="176" viewBox="0 0 184 176" fill="none" xmlns="http://www.w3.org/2000/svg">
<path d="M121.014 26.9226C117.49 27.1223 117.312 29.1402 117.097 32.5102C116.888 29.1402 116.705 27.1223 113.18 26.9226C116.705 26.7177 116.888 24.0955 117.097 20.7306C117.286 24.0955 117.463 26.7177 121.014 26.9226Z" fill="white"/>
<path d="M152.717 149.328C149.192 149.528 149.015 151.545 148.8 154.915C148.59 151.545 148.408 149.528 144.883 149.328C148.408 149.123 148.59 146.501 148.8 143.136C148.988 146.501 149.165 149.123 152.717 149.328Z" fill="white"/>
<path d="M147.881 120.872C144.824 121.052 144.657 122.798 144.485 125.723C144.297 122.798 144.142 121.052 141.084 120.872C144.142 120.698 144.308 118.419 144.485 115.505C144.657 118.419 144.835 120.698 147.881 120.872Z" fill="white"/>
<path d="M159.363 144.908C156.601 145.067 156.461 146.644 156.295 149.282C156.128 146.644 155.989 145.067 153.227 144.908C155.989 144.749 156.128 142.695 156.295 140.063C156.478 142.695 156.601 144.749 159.363 144.908Z" fill="white"/>
<path d="M137.672 135.817C135.963 135.914 135.877 136.893 135.775 138.526C135.673 136.893 135.581 135.914 133.873 135.817C135.581 135.72 135.673 134.45 135.775 132.816C135.888 134.429 135.974 135.72 137.672 135.817Z" fill="white"/>
<path d="M136.64 30.564C135.259 30.6357 135.189 31.3373 135.103 32.5102C135.023 31.3373 134.953 30.6357 133.572 30.564C134.953 30.4974 135.023 29.5806 135.103 28.4129C135.189 29.5806 135.259 30.4974 136.64 30.564Z" fill="white"/>
<path d="M123.454 30.6306L124.561 30.0826L124.346 31.2452L125.238 32.08L124.008 32.249L123.454 33.3194L122.901 32.249L121.66 32.08L122.562 31.2452L122.347 30.0826L123.454 30.6306Z" fill="white"/>
<path d="M146.339 140.416L148.633 139.269L148.187 141.692L150.041 143.423L147.483 143.776L146.339 145.994L145.194 143.776L142.615 143.423L144.485 141.692L144.044 139.269L146.339 140.416Z" fill="white"/>
<path d="M161.383 135.295L163.678 134.147L163.232 136.57L165.086 138.301L162.528 138.654L161.383 140.872L160.239 138.654L157.66 138.301L159.53 136.57L159.089 134.147L161.383 135.295Z" fill="white"/>
<path d="M151.878 130.496L153.485 130.87L152.206 131.853L152.33 133.425L150.943 132.57L149.417 133.174L149.847 131.648L148.767 130.445L150.428 130.368L151.287 129.031L151.878 130.496Z" fill="white"/>
<path d="M68.417 14.0726C68.4682 14.2586 68.4405 14.4563 68.3399 14.6231C68.2394 14.7898 68.0741 14.9122 67.8797 14.9637C59.4031 17.1447 51.4125 20.775 44.2971 25.678C34.8977 32.1538 27.2415 40.6598 21.9554 50.4993C16.6693 60.3389 13.9037 71.232 13.8851 82.2866C13.8851 84.0638 13.9603 85.8358 14.1054 87.5874C14.1135 87.6829 14.1016 87.7791 14.0706 87.8703C14.0395 87.9615 13.9899 88.0459 13.9245 88.1187C13.859 88.1916 13.7792 88.2513 13.6894 88.2946C13.5997 88.3379 13.5018 88.3639 13.4015 88.371H13.3639C13.163 88.381 12.9659 88.3159 12.8145 88.1897C12.663 88.0635 12.5691 87.886 12.5526 87.6949C12.4075 85.8973 12.3215 84.1098 12.3215 82.2814C12.3424 70.9925 15.168 59.8688 20.567 49.8211C25.9661 39.7734 33.785 31.0875 43.3836 24.4745C50.6458 19.4623 58.8044 15.7518 67.4606 13.5246C67.6586 13.4739 67.8696 13.4991 68.0484 13.5948C68.2271 13.6905 68.3595 13.8491 68.417 14.0367V14.0726Z" fill="white"/>
<path d="M78.3901 126.66C77.2278 126.659 76.0668 126.589 74.9137 126.45C71.0948 125.846 67.3246 124.991 63.6301 123.889C60.5513 123.003 58.3967 122.276 56.645 121.697L56.5376 121.625C54.1993 120.734 51.7621 120.1 49.2731 119.735C47.5751 119.506 45.8621 119.391 44.1471 119.392C43.1692 119.392 42.1806 119.428 41.208 119.505C41.0313 119.519 40.8562 119.465 40.7212 119.355C40.5861 119.246 40.5023 119.089 40.488 118.921C40.4738 118.753 40.5303 118.586 40.6452 118.457C40.7601 118.328 40.9239 118.248 41.1006 118.235C42.1107 118.158 43.1262 118.117 44.1364 118.117C45.9217 118.118 47.7047 118.239 49.4719 118.481C52.0488 118.847 54.5728 119.495 56.9943 120.411H57.0427C58.7782 121 60.9328 121.733 64.0653 122.634C67.6976 123.73 71.4049 124.586 75.1609 125.195C76.4247 125.32 77.6944 125.383 78.965 125.384C81.7593 125.383 84.5443 125.079 87.2665 124.478C88.1347 124.327 88.942 123.949 89.5985 123.387C90.1582 122.852 90.5808 122.202 90.8334 121.486C91.0859 120.769 91.1616 120.008 91.0546 119.259C90.7752 117.42 88.9913 115.92 84.7089 113.912C79.8731 111.633 74.9889 109.876 66.9776 108.704C66.2415 108.596 65.5161 108.504 64.7907 108.412H64.7209C61.2337 107.966 57.6606 107.51 53.5985 105.446C51.0177 104.104 48.6734 102.384 46.651 100.35C46.565 100.263 46.4737 100.181 46.3877 100.104C46.3018 100.028 46.1621 99.8996 46.06 99.7869C38.5376 92.8165 26.3513 88.4836 14.3585 88.4836H13.5525C13.3853 88.4846 13.2235 88.4266 13.0985 88.3207C12.9735 88.2147 12.8941 88.0685 12.8755 87.91V87.823C12.8797 87.655 12.9531 87.4953 13.0797 87.3784C13.2064 87.2615 13.3762 87.1967 13.5525 87.1981H14.2886C26.6468 87.1981 39.1877 91.6693 46.9895 98.8702L47.5806 99.4284C49.5155 101.371 51.7561 103.014 54.2218 104.299C58.1173 106.291 61.54 106.701 64.8552 107.095L65.3925 107.167C65.9728 107.239 66.5585 107.316 67.1495 107.403C75.3436 108.601 80.3191 110.399 85.2677 112.724C90.0122 114.957 92.0056 116.729 92.3603 119.049C92.4914 120.004 92.391 120.974 92.0668 121.886C91.7427 122.798 91.2034 123.627 90.4904 124.309C89.6553 125.028 88.6295 125.515 87.5244 125.717C84.6329 126.342 81.6775 126.66 78.7125 126.665L78.3901 126.66Z" fill="white"/>
<path d="M46.7313 100.233C48.7412 102.256 51.0731 103.966 53.6412 105.298C57.6871 107.346 61.2549 107.807 64.7098 108.253C65.4567 108.345 66.2089 108.437 66.9665 108.55C75.0262 109.723 79.8621 111.49 84.7409 113.769C89.0824 115.817 90.8877 117.354 91.1886 119.233C91.2999 120.007 91.2215 120.794 90.9595 121.533C90.6975 122.273 90.2591 122.944 89.6788 123.495C89.0031 124.074 88.1714 124.462 87.277 124.616C83.2921 125.498 79.1811 125.742 75.1122 125.338C71.351 124.729 67.6383 123.874 64.0006 122.778C60.8734 121.876 58.708 121.144 56.9671 120.55C54.5444 119.635 52.0209 118.983 49.4447 118.609C46.6848 118.234 43.8897 118.154 41.111 118.368C41.0286 118.35 40.943 118.351 40.8612 118.371C40.7793 118.39 40.7034 118.428 40.6397 118.481C40.576 118.534 40.5262 118.6 40.4945 118.675C40.4627 118.75 40.4499 118.83 40.457 118.91C40.4641 118.991 40.4909 119.068 40.5353 119.137C40.5797 119.205 40.6403 119.263 40.7124 119.305C40.7845 119.347 40.8659 119.372 40.9501 119.378C41.0343 119.384 41.1189 119.372 41.197 119.341C43.8985 119.131 46.6161 119.208 49.2997 119.572C51.7979 119.939 54.2441 120.577 56.591 121.472C58.3373 122.061 60.5134 122.798 63.6728 123.71C67.3584 124.81 71.1197 125.666 74.9295 126.271C76.1767 126.423 77.4335 126.491 78.6907 126.475C81.645 126.475 84.59 126.159 87.4704 125.533C88.5545 125.349 89.5641 124.883 90.388 124.186C91.0822 123.522 91.6078 122.715 91.9244 121.827C92.2411 120.939 92.3404 119.994 92.2149 119.064C91.8656 116.796 89.8991 115.049 85.2298 112.847C80.2865 110.527 75.3325 108.75 67.1546 107.541C66.3862 107.428 65.6286 107.331 64.871 107.234C61.3839 106.814 58.0471 106.394 54.1839 104.417C51.7066 103.126 49.4551 101.476 47.5104 99.5257L46.8656 98.9726C38.8597 91.5873 25.8083 87.1623 13.5522 87.3467C13.4097 87.3467 13.273 87.4006 13.1723 87.4967C13.0715 87.5927 13.0149 87.723 13.0149 87.8588V87.8998C13.0331 88.0229 13.0977 88.1354 13.1966 88.2164C13.2954 88.2975 13.4218 88.3415 13.5522 88.3403C25.5827 88.1508 38.3385 92.4682 46.1564 99.6896C46.3283 99.874 46.5433 100.043 46.7313 100.233Z" fill="white"/>
<path d="M51.3151 141.318C50.4238 141.318 49.5364 141.204 48.6769 140.98C46.8499 140.474 45.1781 139.555 43.8035 138.301C42.4072 137.135 40.8915 136.105 39.2793 135.228H39.2417C37.5619 134.309 35.829 133.482 34.0512 132.749C33.9793 132.722 33.9137 132.682 33.8578 132.631C33.7755 132.546 33.7182 132.441 33.6918 132.328C33.6654 132.215 33.6707 132.097 33.7073 131.986C33.7533 131.858 33.8401 131.746 33.9557 131.667C34.0713 131.588 34.2099 131.546 34.3521 131.546C34.4255 131.545 34.4984 131.557 34.567 131.582C35.0506 131.776 35.5181 131.981 35.9802 132.186L36.0339 132.217C39.1737 133.542 42.0993 135.287 44.7223 137.4C45.9363 138.509 47.4097 139.327 49.0208 139.786C49.7733 139.984 50.5507 140.082 51.3312 140.078C52.4988 140.052 53.6603 139.909 54.7969 139.653C56.0389 139.405 57.2658 139.092 58.4721 138.716C61.0512 137.943 62.7706 137.395 64.0763 136.959C64.7372 136.744 65.3067 136.57 65.7796 136.447C68.5736 135.597 71.373 135.31 76.9557 134.742C81.7915 134.229 84.2417 133.994 86.09 133.994H86.4876C87.6458 133.993 88.8017 133.897 89.9426 133.707C91.3428 133.462 92.7105 133.07 94.0208 132.539L94.0799 132.509C96.0572 131.72 98.2494 131.407 101.033 131.013H101.135C103.966 130.614 107.48 130.117 112.542 128.964C116.422 128.061 120.121 126.56 123.492 124.519C123.995 124.229 124.367 123.771 124.534 123.234C124.701 122.696 124.651 122.119 124.395 121.615C124.22 121.272 124.006 120.949 123.756 120.652C122.112 118.726 119.344 118.322 117.308 118.322C115.047 118.347 112.809 118.757 110.699 119.531C110.222 119.698 109.763 119.909 109.329 120.161C109.155 120.265 108.976 120.36 108.792 120.447C108.792 120.473 108.109 120.755 108.104 120.76C107.626 120.954 105.901 121.062 103.365 121.062C100.936 121.062 97.9915 120.959 95.1169 120.77C94.9536 120.751 94.8036 120.675 94.6968 120.555C94.5899 120.436 94.534 120.283 94.5401 120.126C94.5462 119.97 94.6138 119.821 94.7296 119.71C94.8454 119.598 95.0009 119.533 95.1652 119.525C98.056 119.715 100.812 119.812 103.171 119.812C104.638 119.863 106.107 119.793 107.561 119.602C107.9 119.459 108.168 119.331 108.168 119.326C108.338 119.25 108.501 119.163 108.657 119.064C109.173 118.778 109.712 118.531 110.269 118.327C112.5 117.511 114.865 117.079 117.254 117.052C119.618 117.052 122.848 117.564 124.82 119.848C125.093 120.187 125.327 120.553 125.518 120.939C125.926 121.73 126.008 122.637 125.749 123.483C125.489 124.329 124.906 125.051 124.116 125.507C120.625 127.626 116.793 129.183 112.773 130.117C107.669 131.279 104.112 131.786 101.258 132.196L100.791 132.263C98.1044 132.657 96.3044 132.923 94.5796 133.61L94.5151 133.635C93.1126 134.207 91.6474 134.628 90.1467 134.89C88.9208 135.095 87.6785 135.197 86.4339 135.197H86.09C84.3491 135.197 81.9527 135.433 77.1276 135.935C71.6363 136.493 68.8799 136.775 66.2202 137.579C65.7527 137.722 65.2154 137.896 64.5438 138.117L64.13 138.25C62.9318 138.634 61.293 139.161 58.9127 139.873C57.6648 140.264 56.3947 140.587 55.1085 140.841C53.8753 141.121 52.6146 141.275 51.3473 141.302L51.3151 141.318Z" fill="white"/>
<path d="M124.701 119.94C121.45 116.13 114.288 116.965 110.28 118.45C109.751 118.649 109.24 118.885 108.748 119.157C108.574 119.255 108.395 119.343 108.211 119.423C108.211 119.423 107.931 119.561 107.582 119.705C107.099 119.884 102.58 120.125 95.1703 119.638C95.1024 119.629 95.0332 119.632 94.9669 119.649C94.9007 119.667 94.8388 119.696 94.7852 119.737C94.7316 119.778 94.6874 119.829 94.6554 119.887C94.6233 119.945 94.6041 120.008 94.5989 120.073C94.5938 120.139 94.6027 120.204 94.6253 120.266C94.6478 120.328 94.6835 120.384 94.73 120.432C94.7766 120.48 94.833 120.519 94.8958 120.545C94.9586 120.572 95.0264 120.585 95.095 120.586C101.693 121.021 107.158 120.934 107.991 120.586C108.372 120.427 108.668 120.283 108.673 120.278C108.858 120.194 109.037 120.1 109.21 119.997C109.651 119.74 110.117 119.526 110.602 119.356C114.331 117.958 120.929 117.123 123.836 120.524C124.096 120.828 124.318 121.159 124.497 121.513C124.763 122.048 124.812 122.658 124.634 123.225C124.457 123.792 124.065 124.277 123.535 124.586C120.151 126.637 116.437 128.147 112.542 129.057C107.491 130.204 103.945 130.706 101.124 131.105C98.3028 131.505 96.1267 131.807 94.1655 132.596H94.0956C92.7758 133.133 91.3971 133.528 89.9852 133.774C88.7441 133.985 87.4845 134.081 86.224 134.06H86.095C84.2843 134.06 81.8449 134.311 76.993 134.808C71.4156 135.377 68.6162 135.663 65.8491 136.503C65.3762 136.647 64.8067 136.821 64.1512 137.041C62.9046 137.446 61.1959 137.999 58.5416 138.798C57.3306 139.176 56.0982 139.489 54.8503 139.735C52.5828 140.191 50.8956 140.36 48.9989 139.868C47.369 139.419 45.8739 138.608 44.6359 137.502C42.0234 135.401 39.1107 133.664 35.9852 132.345L36.5225 132.816C36.3613 132.672 36.1894 132.534 36.0282 132.396C35.9909 132.361 35.9472 132.333 35.8992 132.314C35.4371 132.109 34.9697 131.904 34.5022 131.71C34.3971 131.691 34.2886 131.703 34.1904 131.743C34.0923 131.783 34.0091 131.851 33.9514 131.937C33.8937 132.022 33.8642 132.123 33.8666 132.225C33.869 132.326 33.9032 132.425 33.9649 132.509C34.0102 132.547 34.0608 132.58 34.1153 132.606C35.8996 133.339 37.6396 134.167 39.3273 135.085H39.295L39.3595 135.126C40.9826 136.002 42.5091 137.031 43.9159 138.199C45.281 139.438 46.94 140.345 48.7518 140.841C49.6011 141.062 50.4774 141.174 51.3577 141.174C52.6127 141.149 53.8612 140.994 55.0813 140.713C56.3532 140.461 57.609 140.139 58.8425 139.75C61.5291 138.952 63.2162 138.398 64.4735 137.994L66.15 137.482C68.8365 136.672 71.5822 136.386 77.0897 135.827C81.8879 135.315 84.3112 135.09 86.0682 135.09H86.1918C87.5117 135.103 88.8301 135 90.1303 134.783C91.6183 134.527 93.0712 134.111 94.461 133.543L94.5309 133.512C96.3685 132.78 98.292 132.519 101.237 132.089C104.09 131.684 107.647 131.177 112.746 130.04C116.746 129.101 120.557 127.544 124.029 125.431C124.783 124.991 125.339 124.299 125.587 123.491C125.835 122.682 125.759 121.815 125.373 121.057C125.191 120.663 124.965 120.289 124.701 119.94Z" fill="white"/>
<path d="M126.625 121.113C126.536 121.114 126.447 121.098 126.365 121.065C126.283 121.033 126.209 120.984 126.147 120.924C126.031 120.805 125.967 120.65 125.967 120.488C125.967 120.327 126.031 120.171 126.147 120.053C126.716 119.495 127.635 118.399 127.436 117.354C127.119 115.551 123.675 114.793 122.547 114.542C121.569 114.326 120.568 114.218 119.564 114.219C116.926 114.219 114.573 114.957 112.08 115.756C111.22 116.043 110.312 116.309 109.527 116.529C105.237 117.697 100.798 118.29 96.3364 118.291C95.5089 118.291 94.6761 118.291 93.8486 118.23C93.6761 118.219 93.5142 118.147 93.3955 118.027C93.2768 117.907 93.2102 117.749 93.2092 117.584C93.2213 117.42 93.2976 117.267 93.423 117.154C93.5484 117.041 93.7137 116.977 93.8862 116.975C94.7029 117.016 95.525 117.036 96.331 117.036C100.667 117.037 104.982 116.462 109.151 115.326C110.038 115.075 110.914 114.814 111.666 114.563C113.245 114.026 114.861 113.591 116.502 113.262C115.223 112.363 113.702 111.83 112.117 111.725C110.752 111.729 109.402 111.994 108.147 112.504C106.781 113.043 105.325 113.345 103.848 113.395C103.276 113.392 102.706 113.339 102.145 113.236C101.36 113.093 100.596 112.857 99.8719 112.534L99.5226 112.406C97.5176 111.676 95.3817 111.328 93.2361 111.382C90.6748 111.417 88.1252 111.719 85.6331 112.284H85.488C85.3336 112.283 85.1842 112.232 85.0648 112.138C84.9454 112.045 84.8634 111.916 84.8325 111.771C84.7935 111.606 84.8239 111.432 84.9173 111.288C85.0106 111.143 85.1595 111.039 85.3322 110.998C87.9278 110.42 90.5815 110.111 93.2468 110.076C95.5756 110.037 97.8901 110.432 100.06 111.239L100.415 111.387C101.047 111.668 101.713 111.874 102.397 112.002C102.872 112.089 103.354 112.133 103.837 112.135C105.164 112.084 106.47 111.808 107.695 111.321C109.105 110.753 110.62 110.463 112.149 110.465C114.256 110.532 116.33 111.377 118.345 112.98L118.382 113.026C118.769 112.995 119.156 112.98 119.538 112.98C120.648 112.981 121.755 113.101 122.837 113.339C124.196 113.641 128.269 114.542 128.747 117.175C129.08 118.947 127.672 120.401 127.081 120.949C126.955 121.055 126.793 121.113 126.625 121.113Z" fill="white"/>
<path d="M128.613 117.2C128.129 114.639 124.121 113.774 122.804 113.482C121.352 113.165 119.857 113.062 118.371 113.175C118.235 113.19 118.11 113.254 118.022 113.354L117.899 113.487L118.156 113.195H118.033H118.14L118.242 113.098C116.26 111.515 114.218 110.68 112.176 110.614C110.654 110.61 109.146 110.899 107.743 111.464C106.094 112.012 104.519 112.534 102.37 112.145C101.674 112.016 100.998 111.806 100.355 111.52L100.006 111.377C96.363 109.943 91.4573 109.887 85.3749 111.177C85.2446 111.211 85.1324 111.291 85.0607 111.4C84.989 111.509 84.963 111.64 84.988 111.766C85.0246 111.889 85.1075 111.993 85.2207 112.061C85.334 112.128 85.4693 112.153 85.6006 112.13C91.4734 110.87 96.1803 110.926 99.6084 112.284L99.9469 112.417C100.658 112.733 101.407 112.966 102.177 113.108C104.616 113.549 106.389 112.954 108.087 112.381C109.367 111.864 110.743 111.596 112.133 111.592C113.798 111.701 115.394 112.272 116.722 113.236C116.829 113.308 116.962 113.338 117.093 113.318H117.157L116.888 113.354L117.06 113.477C116.946 113.402 116.805 113.373 116.668 113.395C114.982 113.722 113.323 114.164 111.703 114.716C110.887 114.972 110.043 115.228 109.183 115.479C104.211 116.833 99.039 117.394 93.8752 117.139C93.7424 117.138 93.614 117.184 93.5147 117.268C93.4155 117.353 93.3525 117.469 93.3379 117.595C93.3375 117.724 93.3881 117.848 93.4798 117.943C93.5714 118.038 93.6973 118.096 93.8322 118.107C99.1013 118.367 104.379 117.795 109.452 116.412C110.328 116.166 111.182 115.899 112.004 115.638C115.389 114.578 118.592 113.59 122.541 114.435C123.691 114.691 127.226 115.459 127.559 117.364C127.769 118.46 126.872 119.566 126.232 120.196C126.149 120.289 126.103 120.407 126.103 120.529C126.103 120.651 126.149 120.769 126.232 120.862C126.332 120.951 126.464 121.001 126.6 121.001C126.737 121.001 126.869 120.951 126.968 120.862C127.866 120.089 128.897 118.701 128.613 117.2ZM117.146 113.533L117.2 113.569L117.146 113.533Z" fill="white"/>
<path d="M47.4783 44.8429C46.8174 42.4101 49.0419 38.7329 52.169 38.1849C53.7272 37.9032 55.9302 38.3283 56.3869 39.5318C56.7738 40.5254 55.8496 41.6778 55.5219 42.1541C54.8717 42.9991 54.3881 43.0759 52.2389 44.3922C49.8854 45.8211 49.2031 46.4767 48.4777 46.1898C47.7523 45.903 47.5857 45.1348 47.4783 44.8429Z" fill="white"/>
<path d="M83.7847 54.7275C83.5268 53.3344 87.0086 50.6866 90.2701 51.2551C91.6106 51.5237 92.8134 52.2235 93.6767 53.2371C94.7467 54.4204 95.3039 55.9477 95.2349 57.5085C95.2347 57.8523 95.1539 58.1918 94.9985 58.5021C94.7969 58.8 94.5346 59.0564 94.2273 59.256C93.92 59.4557 93.5738 59.5947 93.2092 59.6647C92.9513 59.721 92.0164 59.9105 90.383 59.2089C88.7495 58.5072 88.5615 57.8107 86.6218 56.5149C84.6821 55.2192 83.8922 55.337 83.7847 54.7275Z" fill="white"/>
<path d="M49.3638 66.8605C48.402 64.9706 51.4056 60.4073 55.4946 58.7736C61.5501 56.2947 70.2922 60.0386 72.4683 65.9437C73.5107 68.7708 73.3656 72.9551 71.0498 74.4814C68.2987 76.2944 63.3501 73.7541 63.0384 74.4814C62.7268 75.2086 67.0253 76.6683 66.7996 78.0665C66.574 79.5568 61.3244 80.9243 56.9077 79.4186C52.045 77.7899 49.0146 72.9705 49.842 71.8028C50.4761 70.9577 53.3131 72.0742 53.6032 71.3521C53.7161 71.096 53.4259 70.7222 51.7173 69.1089C49.6647 67.1627 49.5519 67.1729 49.3638 66.8605Z" fill="white"/>
<path d="M34.5074 65.7388C34.2334 67.3163 32.5516 77.7899 37.8012 81.0164C39.8859 82.3071 43.5934 82.7322 44.4047 82.8141C47.1719 83.0958 49.1653 82.7168 52.4215 83.7155C53.2265 83.9627 54.0128 84.2621 54.7749 84.6118C56.7133 85.5134 58.4745 86.7261 59.9815 88.1969C62.5874 90.6091 66.7516 93.0982 69.6531 93.8306C71.1092 94.1891 75.9934 95.0188 83.3277 89.3646" stroke="white" stroke-width="3" stroke-miterlimit="10" stroke-linecap="round"/>
<path d="M92 173.609C141.706 173.609 182 135.201 182 87.823C182 40.4447 141.706 2.03693 92 2.03693C42.2944 2.03693 2 40.4447 2 87.823C2 135.201 42.2944 173.609 92 173.609Z" stroke="white" stroke-width="3" stroke-miterlimit="10"/>
<path d="M120.263 48.0439C125.386 50.0831 129.818 53.4337 133.067 57.7249C136.316 62.0161 138.257 67.0806 138.673 72.3578C139.09 77.6349 137.966 82.9191 135.427 87.6255C132.888 92.3318 129.033 96.2768 124.287 99.0238C124.031 99.1746 123.832 99.3984 123.716 99.6633C123.601 99.9283 123.576 100.221 123.645 100.5C123.714 100.779 123.873 101.031 124.101 101.219C124.328 101.407 124.611 101.523 124.911 101.549C125.754 101.615 126.614 101.651 127.474 101.651C134.151 101.651 140.638 99.5333 145.914 95.6323C151.19 91.7313 154.955 86.2683 156.616 80.1037C158.276 73.9392 157.739 67.4232 155.087 61.5819C152.436 55.7406 147.821 50.9058 141.97 47.839" stroke="white" stroke-width="3" stroke-miterlimit="10"/>
</svg>
