<svg width="273" height="80" viewBox="0 0 273 80" fill="none" xmlns="http://www.w3.org/2000/svg">
<path d="M71.724 15.952L72.048 17.104L104.808 17.104C105.42 17.104 105.852 16.924 105.96 16.528C103.8 14.476 100.056 11.2 100.056 11.2L96.708 15.952L71.724 15.952ZM149.484 10.084V13.108H138.684V10.084H149.484ZM138.684 21.496V18.292H149.484V21.496L138.684 21.496ZM138.684 14.116H149.484V17.284H138.684V14.116ZM129.072 5.908L141.42 5.908V9.076H138.936L133.464 6.988V24.556H134.22C136.416 24.556 138.684 23.404 138.684 22.9V22.504L149.484 22.504V24.232H150.384C152.22 24.232 154.74 23.116 154.776 22.792V10.912C155.532 10.768 155.964 10.444 156.216 10.156L151.464 6.52L149.124 9.076H146.712V5.908H158.736C159.24 5.908 159.672 5.728 159.78 5.332C157.908 3.784 154.812 1.516 154.812 1.516L152.076 4.9H146.712V1.696C147.72 1.552 147.936 1.192 148.008 0.687998L141.42 0.183998V4.9L128.784 4.9L129.072 5.908ZM145.812 28.12C150.168 29.632 152.76 31.936 154.128 33.556C158.304 37.264 166.944 28.192 145.956 27.724L145.812 28.12ZM153.516 25.42L127.344 25.42L127.632 26.428H138.108C135.912 28.948 131.304 32.152 126.984 34.024L127.128 34.384C132.564 33.772 138.072 32.26 141.456 30.496C142.752 30.784 143.472 30.604 143.832 30.172L138.288 26.428L160.068 26.428C160.608 26.428 161.004 26.248 161.112 25.852C159.24 24.304 156.216 22.072 156.216 22.072L153.516 25.42ZM196.32 17.32C196.32 19.12 197.76 20.56 199.56 20.56C201.36 20.56 202.8 19.12 202.8 17.32C202.8 15.52 201.36 14.08 199.56 14.08C197.76 14.08 196.32 15.52 196.32 17.32ZM247.044 4.792V7.06H247.872C250.212 7.06 252.012 6.484 252.012 6.196V4.792L257.664 4.792V6.88H258.492C260.904 6.88 262.74 6.376 262.74 6.016V4.792L271.056 4.792C271.56 4.792 271.92 4.612 272.028 4.216C270.588 2.848 268.104 0.939999 268.104 0.939999L265.872 3.784L262.74 3.784V1.732C263.676 1.588 263.964 1.264 264 0.759999L257.664 0.255999V3.784L252.012 3.784V1.732C252.912 1.588 253.2 1.264 253.236 0.795998L247.044 0.255999V3.784L237.972 3.784L238.224 4.792L247.044 4.792ZM257.268 29.236V26.86H262.524V29.236H257.268ZM247.548 26.86H252.66V29.236H247.548V26.86ZM252.66 25.852H247.548V23.584H252.66V25.852ZM257.268 23.584H262.524V25.852H257.268V23.584ZM243.012 20.74L263.928 20.74L262.2 22.576H247.872L243.012 20.74ZM257.268 16.636V14.512H261.768V16.636H257.268ZM248.232 14.512H252.66V16.636H248.232V14.512ZM252.66 13.504H248.232V11.452H252.66V13.504ZM257.268 11.452H261.768V13.504H257.268V11.452ZM243.984 8.716L263.1 8.716L261.444 10.444H248.556L243.984 8.716ZM267.384 30.172V24.196C267.996 24.052 268.392 23.8 268.572 23.548L264.792 20.74H269.184C269.688 20.74 270.084 20.56 270.156 20.164C269.004 19.192 267.312 17.932 266.592 17.428C266.628 17.392 266.628 17.356 266.628 17.356V12.064C267.24 11.92 267.636 11.668 267.816 11.416L264.18 8.716L270.408 8.716C270.912 8.716 271.308 8.536 271.416 8.14C269.832 6.808 267.276 4.9 267.276 4.9L264.972 7.708L239.484 7.708L239.772 8.716H243.516V19.372H244.164C246.108 19.372 248.232 18.364 248.232 17.968V17.644H261.768V18.652H262.632C263.568 18.652 264.792 18.292 265.62 17.968L264.144 19.732L240.168 19.732L240.456 20.74H242.832V32.08H243.48C245.424 32.08 247.548 31.072 247.548 30.64V30.244H262.524V31.54H263.388C264.72 31.54 266.556 30.856 267.168 30.424L265.548 32.476H237.864L238.152 33.484H271.236C271.74 33.484 272.136 33.304 272.244 32.908C270.624 31.504 267.924 29.488 267.924 29.488L267.384 30.172ZM3.49601 76.296L3.49601 70.184H18.088V76.296H3.49601ZM18.088 63.24L18.088 69.224H3.49601V63.24H18.088ZM18.088 56.456V62.344H3.49601L3.49601 56.456H18.088ZM19.144 53.928L17.736 55.56H9.00001C10.184 54.28 11.336 52.744 12.104 51.56C12.776 51.528 13.128 51.208 13.224 50.824L9.00001 50.088C8.80801 51.688 8.39201 53.896 7.88001 55.56H3.72001L0.872006 54.28L0.872006 79.528H1.32001C2.50401 79.528 3.49601 78.856 3.49601 78.536V77.256H18.088V79.464H18.472C19.4 79.464 20.68 78.792 20.744 78.536L20.744 57C21.416 56.84 21.896 56.552 22.12 56.296L19.144 53.928ZM67.112 52.456C68.04 53.352 69.16 54.984 69.416 56.264C71.56 57.928 73.704 53.608 67.432 52.2L67.112 52.456ZM50.344 71.816C50.152 74.44 48.232 76.36 46.504 77.032C45.736 77.448 45.256 78.12 45.544 78.856C45.896 79.688 47.144 79.72 48.2 79.144C49.736 78.312 51.688 75.912 50.888 71.848L50.344 71.816ZM54.952 72.232C55.56 74.024 56.072 76.616 55.816 78.696C57.768 81.032 60.616 76.392 55.336 72.104L54.952 72.232ZM61.032 72.104C62.184 73.896 63.528 76.616 63.688 78.76C65.96 80.84 68.264 75.624 61.416 71.944L61.032 72.104ZM67.048 72.072C68.968 73.864 71.4 76.776 72.136 79.144C74.856 80.968 76.52 75.112 67.4 71.784L67.048 72.072ZM73.8 59.304C74.216 59.304 74.536 59.144 74.632 58.792C73.512 57.704 71.688 56.264 71.688 56.264L70.12 58.344H65.864C66.088 56.36 66.12 54.216 66.184 51.976C66.92 51.88 67.208 51.56 67.272 51.144L63.752 50.792C63.752 53.512 63.752 56.04 63.496 58.344H59.336C59.656 57.448 59.976 56.552 60.232 55.656C60.968 55.624 61.32 55.496 61.512 55.208L58.984 52.904L57.512 54.344H52.872C53.288 53.512 53.672 52.648 54.024 51.752C54.696 51.816 55.112 51.528 55.208 51.176L51.688 49.992C50.28 55.272 47.624 60.168 44.904 63.176L45.32 63.56C46.248 62.888 47.144 62.12 47.976 61.256C49.096 62.184 50.344 63.72 50.696 65C52.776 66.376 54.344 62.248 48.392 60.84C49.224 59.944 50.056 58.92 50.792 57.832C51.912 58.632 53.032 59.784 53.448 60.84C55.528 61.992 56.776 58.056 51.208 57.256C51.592 56.616 51.976 55.976 52.36 55.304H57.608C55.88 62.248 51.848 68.616 45.192 72.456L45.544 72.904C52.84 69.768 56.936 64.488 59.272 58.536L59.464 59.304H63.4C62.664 64.168 60.488 68.072 53.832 71.144L54.216 71.688C62.184 68.808 64.744 64.776 65.64 59.816C66.568 65.736 68.552 69.256 72.488 71.784C72.904 70.504 73.736 69.672 74.792 69.48L74.856 69.128C70.472 67.464 67.4 64.424 66.184 59.304H73.8ZM94.632 56.072C95.464 57.672 96.232 60.168 96.104 62.184C98.12 64.296 100.712 59.624 95.016 55.88L94.632 56.072ZM106.44 72.68C105.096 74.664 102.376 77.128 99.72 78.536L100.008 78.952C103.24 78.056 106.376 76.296 108.136 74.664C108.84 74.856 109.128 74.728 109.352 74.408L106.44 72.68ZM115.368 73.544C117.352 74.696 120.008 76.84 120.968 78.472C123.592 79.752 124.616 74.632 115.624 73.192L115.368 73.544ZM107.816 70.248V67.56H117.096V70.248H107.816ZM101.768 54.408H110.216C109.928 55.496 109.576 56.552 109.096 57.608H102.312L102.568 58.536H108.648C108.104 59.592 107.464 60.584 106.728 61.544C106.856 60.68 105.992 59.528 103.176 59.176L102.888 59.4C103.624 60.04 104.424 61.224 104.648 62.216C105.128 62.536 105.608 62.568 105.992 62.44C104.776 63.848 103.336 65.096 101.64 66.12C101.736 64.84 101.768 63.592 101.768 62.376V54.408ZM114.12 58.536C114.856 60.232 115.88 61.704 117.096 62.952L116.904 63.144H108.2L107.816 62.984C109.256 61.64 110.408 60.104 111.336 58.536H114.12ZM119.688 58.536C119.304 59.176 118.504 60.328 117.736 61.192C116.616 60.424 115.624 59.528 114.888 58.536H119.688ZM107.816 64.072H117.096V66.632H107.816V64.072ZM119.784 58.536H122.792C123.208 58.536 123.496 58.376 123.592 58.024C122.568 57.032 120.872 55.72 120.872 55.72L119.4 57.608H111.816C112.136 57 112.424 56.36 112.648 55.752C113.48 55.784 113.736 55.56 113.864 55.208L110.984 54.408H123.112C123.528 54.408 123.88 54.248 123.944 53.896C122.856 52.872 121 51.432 121 51.432L119.432 53.448H112.168V51.272C112.968 51.112 113.224 50.824 113.256 50.408L109.704 50.088V53.448H102.184L99.368 52.168V62.408C99.368 63.24 99.368 64.04 99.336 64.872C97.032 66.152 94.856 67.336 93.928 67.784L95.4 70.728C95.72 70.536 95.912 70.152 95.912 69.768C97.256 68.392 98.376 67.112 99.272 66.088C98.952 70.888 97.864 75.432 94.472 79.176L94.888 79.496C99.624 76.104 101.128 71.432 101.576 66.856C103.016 66.312 104.328 65.64 105.48 64.84V72.52H105.896C107.08 72.52 107.816 72.04 107.816 71.88V71.176H111.272V76.36C111.272 76.712 111.144 76.904 110.664 76.904C110.024 76.904 107.144 76.68 107.144 76.68V77.16C108.52 77.32 109.224 77.608 109.64 77.96C110.056 78.312 110.184 78.888 110.248 79.592C113.352 79.304 113.8 78.216 113.8 76.392V71.176H117.096V72.2H117.48C118.28 72.2 119.464 71.72 119.496 71.528V64.904C120.392 65.512 121.352 65.992 122.376 66.408C122.632 65.288 123.336 64.552 124.264 64.328L124.296 63.976C122.28 63.528 120.264 62.76 118.504 61.672C119.688 61.288 120.872 60.776 121.544 60.392C122.024 60.52 122.312 60.456 122.472 60.232L119.784 58.536ZM143.944 56.104C144.584 57.832 145.16 60.328 144.968 62.408C146.888 64.52 149.448 60.072 144.36 55.944L143.944 56.104ZM153.064 72.84C152.968 74.44 151.592 75.784 150.44 76.232C149.736 76.584 149.256 77.224 149.48 77.96C149.8 78.728 150.92 78.76 151.752 78.376C153.032 77.704 154.248 75.816 153.608 72.84H153.064ZM159.08 63.048V64.584H154.568V63.048H159.08ZM154.568 67.016V65.544H159.08V67.016H154.568ZM159.08 67.976V69C159.08 69.32 159.016 69.512 158.6 69.512C158.12 69.512 156.68 69.384 156.68 69.384V69.864C157.512 69.992 157.896 70.184 158.184 70.376C158.44 70.632 158.504 71.016 158.568 71.464C160.84 71.24 161.16 70.504 161.16 69.096V63.496C161.832 63.368 162.344 63.08 162.536 62.856L159.848 60.872L158.76 62.152H154.952L152.552 61.128V71.656H152.872C153.864 71.656 154.568 71.08 154.568 70.856V67.976H159.08ZM163.4 69.032H163.816C164.552 69.032 165.48 68.616 165.48 68.424V62.952C166.056 62.824 166.28 62.6 166.344 62.28L163.4 61.96V69.032ZM165.16 70.056C166.184 70.216 166.632 70.408 166.952 70.696C167.272 70.984 167.368 71.464 167.432 72.008C169.96 71.784 170.312 70.92 170.312 69.224V62.664C171.048 62.568 171.336 62.344 171.432 61.864L168.136 61.512V69.192C168.136 69.576 168.04 69.736 167.624 69.736C167.176 69.736 165.16 69.576 165.16 69.576V70.056ZM159.016 71.976C160.36 72.616 161.96 74.024 162.504 75.272C164.904 76.296 165.864 71.56 159.304 71.656L159.016 71.976ZM162.696 59.496H156.616L156.872 60.424H165.352C165.8 60.424 166.088 60.264 166.184 59.912C165.288 59.112 163.88 58.088 163.88 58.088L162.696 59.496ZM167.24 74.728H166.856C166.536 75.656 166.248 76.488 166.024 76.808C165.896 76.968 165.704 77.032 165.352 77.064H162.536H159.464C158.376 77.064 158.28 77 158.28 76.616V73.48C158.824 73.384 159.112 73.096 159.176 72.712L156.008 72.392V77C156.008 78.568 156.456 79.048 159.016 79.048H162.376C167.272 79.048 168.296 78.696 168.296 77.736C168.296 77.32 168.072 77.064 167.336 76.808L167.24 74.728ZM167.176 73.064C168.712 74.248 170.472 76.296 170.92 78.024C173.512 79.688 175.304 74.344 167.464 72.808L167.176 73.064ZM159.976 54.152C158.76 56.424 154.408 59.272 150.28 60.68V54.088H172.232C172.712 54.088 173 53.928 173.064 53.576C171.976 52.552 170.152 51.112 170.152 51.112L168.552 53.16H161.32V51.272C162.088 51.144 162.376 50.856 162.408 50.44L158.856 50.088V53.16H150.664L147.88 51.88V62.856C147.88 63.656 147.88 64.488 147.848 65.288C145.864 66.408 144.008 67.432 143.144 67.848L144.68 70.76C145 70.568 145.192 70.184 145.224 69.8C146.248 68.616 147.112 67.496 147.784 66.6C147.528 71.24 146.632 75.624 143.656 79.208L144.104 79.56C149.768 75.176 150.28 68.552 150.28 62.856V61.224C155.048 60.232 159.912 57.928 162.056 55.752C163.912 58.024 167.56 60.136 171.56 61C171.688 60.104 172.328 59.272 173.288 58.984V58.504C169.384 58.248 164.84 56.936 162.536 55.432C163.304 55.336 163.592 55.176 163.688 54.888L159.976 54.152ZM217.128 55.976L215.4 57.512L208.968 57.512V51.912C209.768 51.784 210.056 51.464 210.12 51.016L206.312 50.664V57.512H194.856L195.144 58.472L215.208 58.472C212.008 63.72 206.024 69.416 200.168 73.096C199.72 72.584 199.272 71.976 198.888 71.272L200.232 69.32L198.664 68.84L198.152 71.048C196.776 72.552 194.472 74.824 193.096 76.008L195.496 78.408C195.784 78.12 195.848 77.64 195.528 77.192C196.36 75.88 197.704 73.448 198.6 71.784C201.032 77.384 204.648 78.6 211.688 78.6L221 78.6C221.064 77.608 221.544 76.744 222.472 76.52V76.072C219.912 76.168 214.216 76.168 211.784 76.168C206.408 76.168 202.984 75.784 200.616 73.576C208.2 70.088 214.664 64.488 218.408 58.888C219.208 58.856 219.56 58.76 219.816 58.472L217.128 55.976ZM254.504 50.28C255.432 51.4 256.36 53.192 256.424 54.696C258.76 56.616 261.256 51.912 254.824 50.088L254.504 50.28ZM265.672 60.168V63.368H256.136V60.168H265.672ZM256.136 71.944V68.488H265.672V71.944H256.136ZM256.136 64.296H265.672V67.528H256.136V64.296ZM258.888 56.264C258.792 57.16 258.696 58.312 258.568 59.24H256.296L253.64 58.056V74.92H254.056C255.144 74.92 256.136 74.344 256.136 74.056V72.84H265.672V74.728H266.088C266.952 74.728 268.168 74.152 268.2 73.928V60.584C268.84 60.456 269.32 60.2 269.512 59.944L266.696 57.768L265.352 59.24H260.008C260.616 58.344 261.288 57.224 261.8 56.264H271.08C271.496 56.264 271.816 56.136 271.912 55.784C270.792 54.696 268.904 53.224 268.904 53.224L267.304 55.368H263.112C264.424 54.152 265.768 52.712 266.632 51.592C267.304 51.624 267.72 51.336 267.816 50.952L263.912 49.992C263.496 51.592 262.824 53.768 262.184 55.368H250.856L251.112 56.264H258.888ZM243.368 51.368C244.872 52.84 246.632 55.24 247.048 57.224C249.768 59.176 251.912 53.48 243.688 51.144L243.368 51.368ZM249.288 65.128C250.184 65 250.664 64.744 250.888 64.488L247.816 61.992L246.408 63.816H242.216L242.408 64.776H246.888V74.216C245.128 75.112 243.304 75.976 242.12 76.456L243.752 79.56C244.072 79.4 244.232 79.208 244.168 78.76C245.48 77.672 247.56 75.624 248.904 74.12C251.112 78.024 253.608 78.792 259.464 78.792H270.12C270.28 77.608 270.888 76.872 271.944 76.648V76.2C268.104 76.328 263.112 76.328 259.432 76.328C253.864 76.328 251.528 75.976 249.288 73.544V65.128Z" fill="#484848"/>
</svg>
