<svg xmlns="http://www.w3.org/2000/svg" viewBox="0 0 528.13 503.44"><defs><style>.cls-1{fill:none;stroke:#a0b9cb;stroke-miterlimit:10;stroke-width:4px;}</style></defs><title>pug</title><g id="圖層_2" data-name="圖層 2"><g id="圖層_1-2" data-name="圖層 1"><path class="cls-1" d="M106.92,74.35C98.37,69.83,66,53.91,41.2,67.78,24.42,77.17,19,97.55,8.34,138.43c-8.72,33.34-6.52,48-4.58,56.07,1.25,5.23,8.24,34.42,22,36,14.31,1.64,17.72-28.65,53.23-72.35,24.14-29.7,44.12-42.39,41.27-62.15C118.85,86.25,112.33,79,106.92,74.35Z"/><path class="cls-1" d="M111.85,64.5A185.24,185.24,0,0,1,148,33.28C196.14,1.57,245.59,1.74,264.66,2.06c21.41.36,60.24,1.5,100.22,26.29a175.4,175.4,0,0,1,49.3,46"/><path class="cls-1" d="M413.26,87c5.09-9.16,19-3,46.92-14.29,15.76-6.35,16.19-10.22,23-9.86C503.92,64,520,102.3,524.26,130.22c1.85,12.15,6.27,41.13-11.5,64.08-3.42,4.41-15.92,20.56-27.93,18.07-13.92-2.88-9.37-27.15-32.86-57.5-10.43-13.47-16.34-15.18-26.71-31.87C416.82,109.42,408.36,95.81,413.26,87Z"/><path class="cls-1" d="M77.35,172.94A92.91,92.91,0,0,0,79,260a11.57,11.57,0,0,0,6.57,21.36c-1.3,5.07-6.55,27.8,6.58,49.29,12.63,20.7,34.78,47.38,49.29,50.94,27.29,6.69,48.95,17.19,60.79,13.14l13.15-4.93a105.27,105.27,0,0,0,44.36,6.58c12.19-.91,22.46-4,31.22-6.58A202.65,202.65,0,0,0,317.24,380c10.76,4.93,31.24,12,52.57,4.93,31.94-10.57,44.33-45.65,50.95-64.4a144.91,144.91,0,0,0,8.2-47.33A90.82,90.82,0,0,0,450.32,237c4.73-15.46,3.95-28.25,3.29-37.79a146,146,0,0,0-3.6-23.85,143.88,143.88,0,0,0-7.9-23.8"/><path class="cls-1" d="M228.94,105.57a106.07,106.07,0,0,1,11.5,82.16"/><path class="cls-1" d="M290.8,103.93a61,61,0,0,0-18.07,32.86c-4.67,25.3,9.06,44.37,11.5,47.65"/><path class="cls-1" d="M189.67,162.71a42.85,42.85,0,0,1,30.74-22.05"/><path class="cls-1" d="M309.08,133.76a32.92,32.92,0,0,1,26.58,26.45"/><path class="cls-1" d="M116.78,209.09c9.52-23.7,33.51-31.25,39.43-32.86,8.08-2.21,25.11-6.86,39.44,3.28,1.45,1,13.37,9.74,14.79,24.65,2,21.53-19.76,35.68-23,37.79-20.19,13.11-43.8,5.86-52.57,3.28a80.84,80.84,0,0,1-21.36-9.85A53.38,53.38,0,0,1,116.78,209.09Z"/><path class="cls-1" d="M323.81,184.44c9.07-9,22.84-7.48,31.22-6.57A54.14,54.14,0,0,1,384.6,191c14.75,13,17.48,29.91,18.08,34.51a57.61,57.61,0,0,1-11.51,13.14c-5.1,4.29-21.09,17.71-41.07,13.15-22.94-5.24-30.7-29.49-31.22-31.22C318,217.54,311.63,196.51,323.81,184.44Z"/><path class="cls-1" d="M238.27,210.89c8.95-7.28,19.7-6.16,25.16-5.6,5.3.55,15.25,1.59,22.36,9.79,5,5.77,9.84,16.52,5.59,23.76s-14.95,7.06-27.95,7c-14.68-.09-30.67-.18-34.94-9.79C224.89,228,231.18,216.65,238.27,210.89Z"/><path class="cls-1" d="M133.45,261.2A141.22,141.22,0,0,0,160,262.6c20.1-.84,39.21-1.64,50.31-14,9.81-10.9,2.75-19,15.37-34.94,3-3.84,10-12.41,22.37-16.77,3.77-1.33,14-4.93,25.15-1.4,11.57,3.65,17.82,12.9,25.16,23.76,10.3,15.24,7.07,18.54,15.37,27.95,11.77,13.34,27.39,17.1,32.15,18.17a64.78,64.78,0,0,0,33.54-1.4"/><path class="cls-1" d="M236.8,338.6a47,47,0,0,1,3.29,23c-1,8.53-4.29,13.56-1.64,16.43s10.6,2.18,13.14-1.64c1.73-2.6-.12-4.91-3.28-18.07-2.16-9-2.42-12.59-1.65-16.43a25.15,25.15,0,0,1,3.29-8.22"/><path class="cls-1" d="M226.76,358.5a187.08,187.08,0,0,1,12-38c3.51-8,4.46-8.42,10-20,11.9-24.88,13-34,17-34,4.58,0,5.15,12.12,17,36,5.6,11.29,7.23,12.14,12,22a168.49,168.49,0,0,1,13,38"/><path class="cls-1" d="M154.57,181.15c-3.68,1.23-12.38,4.27-18.07,13.15-7.58,11.82-3.81,24.63-3.29,26.29,4,12.87,15.91,21.16,27.93,23a36.08,36.08,0,0,0,34.51-14.79c6.81-9.55,10.26-24.44,3.28-36.14C189.54,176.89,167.22,176.94,154.57,181.15Z"/><path class="cls-1" d="M341.88,182.8A28.21,28.21,0,0,0,328.74,191c-7.47,8.53-6.81,19.25-6.58,23,.2,3.22,1.17,15.57,11.51,24.64,2.15,1.89,11,9.67,23,8.22,13.95-1.7,21.07-14.57,23-18.08,1.27-2.29,10.91-19.74,1.65-34.5C372.56,180.35,353.41,179.15,341.88,182.8Z"/><path class="cls-1" d="M246.76,313.5c.73-1.27,5.48-9.3,15-11a19.23,19.23,0,0,1,13,2,19,19,0,0,1,8,9"/><path class="cls-1" d="M55.19,324.72c-1.4,15.38-5.61,80.8,40.19,134.15a167.89,167.89,0,0,0,56.93,42.75"/><path class="cls-1" d="M477.76,243.5c10.6,15.2,28.2,44.43,39,88.16a325.68,325.68,0,0,1,7,114.34"/></g></g></svg>