<svg xmlns="http://www.w3.org/2000/svg" viewBox="0 0 1197.28 1195.72"><defs><style>.cls-1{fill:none;stroke:#ffcb27;stroke-linecap:round;stroke-linejoin:round;stroke-width:7px;}.cls-2{fill:#ffcb27;}</style></defs><title>sun</title><g id="圖層_2" data-name="圖層 2"><g id="圖層_1-2" data-name="圖層 1"><circle class="cls-1" cx="599.43" cy="597.86" r="419"/><path class="cls-2" d="M569.23,176.38A49.13,49.13,0,0,1,569.9,150c2.68-8.65,8.17-15.69,13.26-23,9.26-13.31,15.22-28.8,15.4-45.15C598.74,66.15,592.81,52,584,39.31S564.45,15.26,557.2,1.5l-4.11,4.11c23.57,13.92,49.67,29.47,61.82,55.21,7,14.91,9,33.44,7.91,49.77-.58,8.91-3.56,16.36-7.72,24.14-2.87,5.38-6.21,11.16-6.44,17.41-.37,9.67,4,24.54,13.25,29.31,3.43,1.76,6.47-3.41,3-5.18-8.64-4.45-12.25-20.87-9.06-29.34,2.67-7.12,7.2-13.39,9.85-20.54,2.82-7.62,3.43-15.93,3.22-24-.41-15.39-2.37-31.31-9.19-45.27-5.86-12-15-22.19-25.15-30.74-11.87-10-25.16-18.09-38.49-26-2.67-1.58-5.47,1.51-4.11,4.1,7.26,13.76,17.93,25.11,26.76,37.8,9.31,13.39,15,28,13.55,44.5A72,72,0,0,1,585,112.41c-3.6,7.21-8.57,13.47-13,20.14-9.09,13.62-12.44,29.39-8.53,45.42.92,3.75,6.7,2.16,5.79-1.59Z"/><path class="cls-2" d="M362.55,248a49.17,49.17,0,0,1-12.7-23.57c-2-9.18-.5-18.4.2-27.64,1.14-15.12-1.46-30.48-8.62-43.95S322.69,129.7,309.11,123c-14.64-7.22-30.51-11.73-44.41-20.48l-1.51,5.59c28.22.28,59.83.77,83.38,18.54,12.24,9.23,22.2,23.19,29.1,36.76,4,7.92,5.44,15.75,5.74,24.57.21,6.25.07,13.21,3,18.92,4.46,8.73,15.78,19.57,26.31,19.08,3.85-.17,3.87-6.18,0-6-5.32.25-10.53-3.92-14.18-7.35-4.78-4.47-7.87-9-8.63-15.62-.9-7.72-.19-15.53-1.95-23.16-1.66-7.21-5.05-14-8.91-20.2C369.51,141.47,360.62,129.55,349,121c-11.13-8.15-24.45-12.83-37.91-15.37-15.77-3-31.87-3.37-47.87-3.53-3.05,0-4,4-1.51,5.59,13.45,8.47,28.73,13,43,19.8,14.77,7.07,26.83,17.24,33.59,32.45a71.72,71.72,0,0,1,5.87,23.8c.65,8.76-.75,17.35-1.22,26.07-.85,15.87,4.34,30.84,15.38,42.37,2.68,2.8,6.92-1.45,4.25-4.24Z"/><path class="cls-2" d="M219.35,413.28a49,49,0,0,1-20.89-12.09c-6.23-6.12-9.89-13.7-13.48-21.52-6.23-13.59-14.32-25.61-26.38-34.7-12.36-9.32-27-13.64-42.4-13.42-18.23.25-36,5.38-54.33,4.71l1.51,5.59c27.3-15.41,58.62-32.42,90.91-23.74,14,3.76,29.67,10.6,40.66,20.27,9.48,8.36,13.07,23.26,24.43,29.39,8.23,4.44,22.18,7.87,30.7,2.39,3.23-2.08.23-7.27-3-5.18-7.32,4.71-22.35.71-28.26-5-5.45-5.23-8.49-12.79-13-18.77a55.81,55.81,0,0,0-14.3-12.93c-11.89-7.74-26.11-14.19-40-17.06-14.54-3-29.46-1.31-43.55,3.07-16.78,5.22-32.32,13.73-47.55,22.32-2.68,1.51-1.38,5.49,1.51,5.6,17.7.64,34.92-4.1,52.54-4.67,16.92-.54,32.51,4.53,45.17,15.91a74.86,74.86,0,0,1,14.27,17.4c4.19,7,6.93,14.8,10.9,22a55.09,55.09,0,0,0,33,26.21c3.71,1.08,5.3-4.71,1.59-5.79Z"/><path class="cls-2" d="M177.4,631.88c-7.81,3.71-15.89,6.38-24.51,4.07a114.6,114.6,0,0,1-22-8.09c-12.86-6.51-23.82-16-35.16-24.79-10.21-7.89-20.52-15.11-33.63-16.8-11.39-1.47-22.84,1.18-32.91,6.54-12,6.4-21.84,16.44-28.86,28l5.48,2.32c3.74-26.7,24.29-50.31,51.84-53.46,30.56-3.48,57.43,15.82,85.16,25.11,7.42,2.48,15.33,5.2,23.14,2.92a30.29,30.29,0,0,0,18.1-15.54c1.75-3.43-3.43-6.47-5.18-3-4.31,8.46-13.07,15-22.94,13.13-7.25-1.38-14.38-4.12-21.21-6.86-13.93-5.6-27.31-12.59-41.64-17.17-13.53-4.32-28.29-6.56-42.32-3.45a64.35,64.35,0,0,0-32,18.17A69.4,69.4,0,0,0,0,621.56c-.44,3.18,3.59,5.45,5.49,2.31,8.11-13.39,20.46-24.8,35.56-29.66,16.89-5.42,32.09-.47,45.92,9.72,14.09,10.37,27.09,22.66,43.06,30.18,7.83,3.69,16.89,7.34,25.48,8.58s17.17-2,24.89-5.63c3.48-1.65.44-6.83-3-5.18Z"/><path class="cls-2" d="M249.53,834.74A49.26,49.26,0,0,1,226,847.44c-9.18,2-18.4.49-27.64-.2-15.13-1.14-30.48,1.45-43.95,8.61s-23.1,18.74-29.79,32.32c-7.22,14.65-11.73,30.51-20.48,44.41l5.59,1.51c.28-28.22.77-59.83,18.54-83.38,9.23-12.24,23.19-22.19,36.76-29.1,7.92-4,15.75-5.44,24.57-5.74,6.24-.21,13.21-.06,18.92-3,8.73-4.47,19.57-15.79,19.08-26.32-.18-3.84-6.18-3.86-6,0,.25,5.33-3.92,10.53-7.35,14.19-4.47,4.77-9.05,7.86-15.62,8.62-7.72.9-15.53.2-23.16,2-7.21,1.66-14,5-20.2,8.92-12.2,7.52-24.11,16.42-32.64,28.06-8.16,11.13-12.83,24.45-15.37,37.91-3,15.77-3.37,31.87-3.53,47.87,0,3.06,4,4,5.59,1.52,8.47-13.46,13-28.74,19.8-43,7.07-14.78,17.24-26.83,32.45-33.59a71.74,71.74,0,0,1,23.8-5.88c8.76-.64,17.35.76,26.07,1.22,15.87.85,30.84-4.34,42.37-15.38,2.8-2.67-1.45-6.91-4.24-4.24Z"/><path class="cls-2" d="M414.85,977.93a49.11,49.11,0,0,1-12.09,20.9c-6.12,6.22-13.7,9.88-21.52,13.47-13.59,6.24-25.61,14.33-34.7,26.39-9.32,12.35-13.64,27-13.42,42.39.25,18.24,5.37,36,4.7,54.33l5.59-1.51c-15.4-27.29-32.41-58.61-23.73-90.9,3.76-14,10.6-29.68,20.27-40.66,8.36-9.49,23.26-13.08,29.39-24.44,4.44-8.23,7.87-22.18,2.39-30.69-2.08-3.24-7.28-.23-5.18,3,4.71,7.31.71,22.35-4.95,28.26-5.23,5.45-12.79,8.49-18.77,13a55.84,55.84,0,0,0-12.93,14.31c-7.74,11.88-14.19,26.11-17.06,40-3,14.55-1.31,29.47,3.07,43.55,5.21,16.78,13.73,32.32,22.32,47.56,1.51,2.67,5.49,1.38,5.59-1.52.65-17.7-4.1-34.91-4.66-52.53-.54-16.93,4.52-32.51,15.91-45.18a75.11,75.11,0,0,1,17.4-14.27c7-4.19,14.8-6.92,22-10.9a55.07,55.07,0,0,0,26.21-33c1.08-3.72-4.71-5.31-5.79-1.6Z"/><path class="cls-2" d="M629.63,1019.34a49.13,49.13,0,0,1-.68,26.35c-2.67,8.64-8.17,15.68-13.26,23-9.25,13.31-15.21,28.8-15.4,45.15-.17,15.72,5.75,29.84,14.61,42.57s19.5,24,26.76,37.8l4.1-4.1c-23.57-13.92-49.67-29.48-61.81-55.21-7-14.92-9-33.44-7.92-49.77.58-8.91,3.57-16.36,7.72-24.14,2.87-5.38,6.21-11.17,6.45-17.41.36-9.67-4-24.54-13.26-29.31-3.43-1.77-6.46,3.41-3,5.18,8.64,4.45,12.25,20.87,9.07,29.34-2.68,7.12-7.21,13.38-9.85,20.53-2.83,7.62-3.43,15.93-3.22,24,.4,15.38,2.37,31.3,9.18,45.27,5.86,12,15,22.18,25.15,30.74,11.88,10,25.17,18.09,38.49,26,2.67,1.57,5.48-1.52,4.11-4.11-7.26-13.76-17.93-25.1-26.76-37.8-9.31-13.38-15-28-13.55-44.5a71.83,71.83,0,0,1,7.33-25.58c3.59-7.21,8.57-13.46,13-20.13,9.09-13.62,12.45-29.4,8.53-45.43-.91-3.74-6.7-2.16-5.78,1.6Z"/><path class="cls-2" d="M836.31,947.76A49.22,49.22,0,0,1,849,971.32c2,9.19.49,18.41-.2,27.64-1.14,15.13,1.45,30.49,8.61,44s18.74,23.1,32.32,29.8c14.65,7.21,30.51,11.73,44.41,20.47l1.51-5.59c-28.22-.27-59.83-.76-83.38-18.53-12.24-9.24-22.19-23.19-29.1-36.77-4-7.92-5.44-15.74-5.74-24.56-.21-6.25-.06-13.22-3-18.93-4.47-8.72-15.79-19.56-26.32-19.08-3.84.18-3.86,6.18,0,6,5.33-.24,10.53,3.93,14.19,7.35,4.77,4.48,7.86,9,8.62,15.63.9,7.72.2,15.53,1.95,23.16,1.66,7.21,5.05,13.94,8.91,20.2,7.53,12.19,16.43,24.11,28.07,32.64,11.13,8.15,24.45,12.82,37.91,15.37,15.77,3,31.87,3.37,47.87,3.52,3.06,0,4-4,1.52-5.59-13.46-8.47-28.74-13-43-19.79-14.78-7.07-26.84-17.24-33.59-32.45a71.85,71.85,0,0,1-5.88-23.81c-.64-8.76.76-17.34,1.22-26.07.85-15.87-4.34-30.84-15.38-42.37-2.68-2.79-6.91,1.46-4.24,4.25Z"/><path class="cls-2" d="M977.35,785.15c7.07,2.94,14.94,7.56,17,15.4,1.64,6.37,3.33,12.5,6.16,18.46a73.36,73.36,0,0,0,22.23,27c19.16,14.48,44.06,19.85,67.68,20a114.39,114.39,0,0,0,22.26-1.69c9.83-1.9,19.13-5.47,29.29-4.92l-2.12-5.12a125.91,125.91,0,0,1-44.6,24.86c-14,4.41-28.51,7.48-43.3,6.56-28.38-1.75-54.45-17.19-71.38-39.75a116.41,116.41,0,0,1-6.72-10c-1.56-2.61-2.7-5.51-5.11-7.45-5.28-4.25-13.48-4.27-19.57-2-3.59,1.31-2,7.12,1.6,5.79a17.56,17.56,0,0,1,10.41-.78c4.31,1.09,5.37,4,7.49,7.51a118.81,118.81,0,0,0,12.78,17.54,106.25,106.25,0,0,0,32.47,25.05,100.07,100.07,0,0,0,38.73,10.22c14.51.8,28.67-2.18,42.51-6.3a132.94,132.94,0,0,0,48.93-26.92c2.1-1.81.28-5-2.12-5.12-8.34-.45-16.21,1.6-24.22,3.61a101.76,101.76,0,0,1-21.83,2.93,135.37,135.37,0,0,1-36.33-3.57c-24-5.88-45.84-20.17-55.39-43.75-2.63-6.48-2.89-14.5-6.92-20.23-4.37-6.22-11.44-10.13-18.29-13-3.56-1.48-5.12,4.32-1.6,5.78Z"/><path class="cls-2" d="M1020.91,567.66a49.13,49.13,0,0,1,26.35.67c8.64,2.68,15.68,8.17,23,13.26,13.31,9.26,28.8,15.22,45.15,15.4,15.72.18,29.84-5.74,42.57-14.6s24-19.51,37.8-26.76l-4.1-4.11c-13.92,23.57-29.48,49.67-55.22,61.82-14.91,7-33.43,9-49.77,7.91-8.91-.57-16.35-3.56-24.13-7.72-5.39-2.87-11.17-6.2-17.41-6.44-9.67-.37-24.54,4-29.31,13.25-1.77,3.43,3.41,6.47,5.18,3,4.45-8.64,20.87-12.25,29.34-9.06,7.12,2.67,13.38,7.2,20.53,9.85,7.62,2.82,15.93,3.43,24,3.22,15.38-.41,31.3-2.37,45.27-9.19,12-5.86,22.18-15,30.73-25.15,10-11.87,18.1-25.16,26-38.49,1.57-2.67-1.52-5.47-4.11-4.1-13.76,7.25-25.1,17.92-37.8,26.75-13.38,9.32-28,15-44.5,13.55a71.76,71.76,0,0,1-25.58-7.32c-7.21-3.59-13.46-8.57-20.13-13-13.62-9.09-29.4-12.44-45.43-8.53-3.75.92-2.16,6.7,1.6,5.79Z"/><path class="cls-2" d="M949.32,361a49.22,49.22,0,0,1,23.57-12.7c9.18-2,18.41-.5,27.64.2,15.13,1.14,30.49-1.46,44-8.62s23.1-18.73,29.79-32.32c7.22-14.64,11.74-30.51,20.48-44.4l-5.59-1.52c-.27,28.22-.76,59.83-18.53,83.38-9.24,12.24-23.19,22.2-36.77,29.11-7.92,4-15.74,5.43-24.56,5.73-6.25.21-13.22.07-18.93,3-8.73,4.46-19.57,15.78-19.08,26.31.18,3.85,6.18,3.87,6,0-.24-5.32,3.93-10.53,7.35-14.18,4.47-4.77,9.05-7.86,15.63-8.63,7.72-.89,15.53-.19,23.16-1.95,7.2-1.65,13.94-5.05,20.2-8.91,12.19-7.52,24.11-16.42,32.64-28.07,8.15-11.13,12.82-24.45,15.37-37.91,3-15.76,3.37-31.87,3.52-47.87,0-3.05-4-4-5.59-1.51-8.47,13.45-13,28.74-19.79,43-7.07,14.78-17.24,26.83-32.45,33.59a71.84,71.84,0,0,1-23.81,5.87c-8.76.65-17.34-.75-26.07-1.22-15.87-.84-30.84,4.34-42.37,15.38-2.79,2.68,1.45,6.92,4.24,4.25Z"/><path class="cls-2" d="M784.42,217.88c6.06-24.44,32.73-28.08,52.38-37.15,23.54-10.87,28.19-37.49,28.94-60.94.64-20-5.43-39.49-4.71-59.49l-5.59,1.52c9.52,16.86,19.76,34.59,23.81,53.74,1.45,6.88,1.9,14.07,3.1,21,1.27,7.38,2.65,14.75,3.48,22.19,1.53,13.86,1.45,29-7,40.84-7.25,10.17-19.24,14.35-29.49,20.69-10.67,6.61-18.71,15.8-17.22,29.08.43,3.8,6.43,3.84,6,0-1.52-13.55,8.39-20.75,19.07-26.71s21.18-11,27.92-21.7c15.59-24.64,3.27-56.66.53-83.1-1-10.06-5.49-20.19-9.59-29.36-4.56-10.2-10-20-15.46-29.71-1.51-2.67-5.49-1.38-5.59,1.51-.63,17.52,3.92,34.58,4.65,52,.54,12.91-.58,26.79-4.75,39.09-4.28,12.64-12.59,20.67-24.76,25.71-10,4.14-20.53,7.11-30,12.35-10.74,5.91-18.5,14.79-21.49,26.82-.93,3.75,4.86,5.35,5.79,1.59Z"/><path class="cls-2" d="M478.09,195.27c-2.11-7.79-1.16-14.7-.54-22.56.56-7-1.57-13.66-2.87-20.46a140.84,140.84,0,0,1-.46-49.27l-5.48.72c4.32,6.54,3.13,14.81,6.1,21.88,1.69,4,4.52,7.33,6.52,11.17,2.3,4.42,2.09,8.95,2.87,13.73,2.4,14.8,15.58,24.14,22.72,36.49,1.93,3.34,7.12.33,5.18-3-3.61-6.23-8.42-11.53-12.9-17.12-5.77-7.2-8.7-13.66-9.67-22.86-.89-8.44-6.33-13.49-9.32-21-2.9-7.32-1.83-15.46-6.32-22.26-1.27-1.94-5-2-5.48.71a149.23,149.23,0,0,0-.2,48.73c1.28,7.82,4,15.47,3.24,23.47s-1.34,15.3.82,23.29c1,3.72,6.8,2.14,5.79-1.6Z"/><path class="cls-2" d="M293.07,309.89c-6-5.95-8.4-12.74-12.14-20.08-3.23-6.35-8.66-11.14-13.21-16.51a140.43,140.43,0,0,1-24.17-41.46l-4.41,3.39c6.91,3.41,10,11,15.92,15.67,3.05,2.39,6.59,3.89,10,5.75,4.45,2.46,6.84,5.88,9.8,9.87,9.46,12.8,26.05,14.22,39.05,21.72,3.35,1.94,6.37-3.24,3-5.18-6.66-3.84-14-6.07-21.08-8.92a47.22,47.22,0,0,1-10.64-5.6c-3.69-2.72-5.92-6.37-8.66-10-4.93-6.46-12.68-7.88-18.54-13-5.65-5-8.8-12.05-15.8-15.5-2.11-1-5.4.73-4.41,3.38a149.25,149.25,0,0,0,23.53,41.47c5.18,6.41,11.74,11.91,15.2,19.51,3.37,7.42,6.45,13.9,12.34,19.73,2.74,2.71,7-1.53,4.24-4.25Z"/><path class="cls-2" d="M190.15,501.66c-8.17-2.17-13.65-6.84-20.55-11.32-6.2-4-13.64-5.49-20.5-8a140.39,140.39,0,0,1-40.87-23.52L106.11,464c7.84-.43,14.38,4.69,22,5.66,4.18.54,8.28-.19,12.46-.06,4.55.14,8.07,1.93,12.17,3.7,14.52,6.31,29.66-.7,44.59-.75,3.86,0,3.87-6,0-6-7.76,0-15.24,1.8-22.89,2.86a44.08,44.08,0,0,1-13.32.24c-3.9-.67-7.26-2.52-10.85-4.05-7.62-3.22-15.18-.52-23-2.13-7.32-1.51-13.45-5.9-21.19-5.47-2.34.13-4.28,3.35-2.12,5.12a149.14,149.14,0,0,0,40.3,23.84c7.59,3,16.22,4.44,23,9.11,7,4.82,12.9,9.21,21.27,11.42,3.73,1,5.33-4.79,1.59-5.78Z"/><path class="cls-2" d="M196.84,719.19c-7.79,2.12-14.7,1.17-22.56.54-7-.56-13.66,1.57-20.46,2.87a140.84,140.84,0,0,1-49.27.46l.72,5.48c6.54-4.31,14.81-3.13,21.88-6.1,4-1.69,7.33-4.52,11.17-6.52,4.42-2.29,9-2.09,13.73-2.86,14.8-2.41,24.14-15.58,36.49-22.72,3.34-1.93.32-7.12-3-5.18-6.23,3.6-11.53,8.42-17.12,12.9-7.21,5.77-13.66,8.69-22.86,9.67-8.44.89-13.5,6.32-21,9.31-7.32,2.91-15.46,1.83-22.26,6.32-1.94,1.28-2,5,.71,5.49a149.23,149.23,0,0,0,48.73.2c7.82-1.29,15.47-4,23.47-3.24s15.3,1.34,23.29-.83c3.72-1,2.14-6.8-1.6-5.79Z"/><path class="cls-2" d="M311.46,904.22c-5.95,6-12.75,8.4-20.09,12.13-6.34,3.24-11.13,8.67-16.5,13.21a140.68,140.68,0,0,1-41.46,24.18l3.39,4.4c3.41-6.91,11-10,15.66-15.92,2.4-3,3.9-6.59,5.76-10,2.46-4.45,5.88-6.84,9.87-9.79,12.8-9.47,14.22-26.06,21.72-39.05,1.94-3.35-3.25-6.38-5.18-3-3.84,6.66-6.07,14-8.92,21.09a47.65,47.65,0,0,1-5.6,10.64c-2.72,3.69-6.37,5.92-10,8.65-6.46,4.93-7.88,12.68-13,18.54-5,5.66-12.05,8.81-15.5,15.81-1.05,2.11.73,5.4,3.38,4.4A149,149,0,0,0,276.47,936c6.41-5.17,11.9-11.74,19.51-15.19,7.42-3.38,13.9-6.45,19.72-12.34,2.72-2.75-1.52-7-4.24-4.24Z"/><path class="cls-2" d="M503.23,1007.13c-2.17,8.18-6.84,13.66-11.32,20.55-4,6.2-5.49,13.64-8,20.51a140.08,140.08,0,0,1-23.51,40.86l5.12,2.12c-.44-7.83,4.69-14.38,5.66-22,.54-4.17-.19-8.28-.06-12.45.14-4.56,1.92-8.08,3.7-12.17,6.31-14.53-.7-29.67-.75-44.6,0-3.86-6-3.87-6,0,0,7.76,1.8,15.25,2.86,22.89a44.15,44.15,0,0,1,.24,13.33c-.67,3.89-2.52,7.25-4.05,10.85-3.22,7.61-.53,15.18-2.13,23-1.51,7.32-5.9,13.45-5.47,21.19.13,2.35,3.35,4.28,5.12,2.12a149,149,0,0,0,23.84-40.3c3-7.58,4.44-16.21,9.11-23,4.82-7,9.21-12.9,11.42-21.27,1-3.74-4.8-5.33-5.78-1.6Z"/><path class="cls-2" d="M720.76,1000.44c2.12,7.8,1.17,14.7.54,22.56-.56,7,1.57,13.67,2.87,20.47a140.84,140.84,0,0,1,.46,49.27l5.48-.72c-4.31-6.55-3.13-14.81-6.1-21.89-1.69-4-4.52-7.32-6.52-11.17-2.3-4.42-2.09-9-2.87-13.73-2.4-14.79-15.57-24.13-22.71-36.49-1.93-3.34-7.12-.32-5.18,3,3.6,6.24,8.41,11.53,12.9,17.13,5.77,7.2,8.69,13.66,9.66,22.85.9,8.44,6.33,13.5,9.32,21,2.91,7.32,1.83,15.45,6.32,22.26,1.28,1.93,5,2,5.48-.72a149.23,149.23,0,0,0,.21-48.73c-1.29-7.81-4-15.47-3.24-23.47s1.34-15.29-.83-23.28c-1-3.72-6.8-2.14-5.79,1.59Z"/><path class="cls-2" d="M905.79,885.82c6,5.95,8.39,12.75,12.13,20.09,3.23,6.35,8.67,11.13,13.21,16.51a140.42,140.42,0,0,1,24.18,41.46l4.4-3.39c-6.91-3.41-10-11-15.92-15.67-3-2.4-6.59-3.89-10-5.75-4.45-2.46-6.84-5.88-9.79-9.88-9.47-12.8-26.06-14.22-39-21.72-3.35-1.93-6.38,3.25-3,5.18,6.66,3.85,14,6.07,21.09,8.92a47.65,47.65,0,0,1,10.64,5.6c3.69,2.73,5.92,6.37,8.65,10,4.93,6.47,12.68,7.88,18.54,13,5.66,5,8.81,12.05,15.8,15.5,2.12,1,5.41-.73,4.41-3.39a149.34,149.34,0,0,0-23.53-41.46c-5.17-6.42-11.74-11.91-15.2-19.52-3.37-7.42-6.44-13.89-12.33-19.72-2.75-2.72-7,1.52-4.24,4.24Z"/><path class="cls-2" d="M1008.7,694.06c8.18,2.16,13.66,6.84,20.55,11.31,6.2,4,13.64,5.49,20.51,8a140.53,140.53,0,0,1,40.86,23.51l2.12-5.12c-7.83.44-14.38-4.68-22-5.66-4.17-.53-8.28.2-12.45.07-4.56-.14-8.08-1.93-12.18-3.71-14.52-6.31-29.66.7-44.59.75-3.86,0-3.87,6,0,6,7.76,0,15.25-1.79,22.89-2.85a43.83,43.83,0,0,1,13.33-.25c3.89.67,7.25,2.53,10.85,4,7.61,3.23,15.18.53,23,2.13,7.32,1.51,13.45,5.91,21.19,5.47,2.35-.13,4.28-3.34,2.12-5.12a149.24,149.24,0,0,0-40.3-23.84c-7.58-3-16.22-4.43-23-9.1-7-4.82-12.89-9.21-21.26-11.43-3.74-1-5.33,4.8-1.6,5.79Z"/><path class="cls-2" d="M1002,476.52c7.8-2.11,14.7-1.16,22.56-.54,7,.56,13.67-1.57,20.47-2.86a140.37,140.37,0,0,1,49.27-.46l-.72-5.49c-6.55,4.32-14.81,3.13-21.89,6.1-4,1.69-7.32,4.52-11.17,6.52-4.42,2.3-9,2.09-13.73,2.87-14.79,2.41-24.14,15.58-36.49,22.72-3.34,1.93-.32,7.12,3,5.18,6.24-3.61,11.53-8.42,17.12-12.9,7.21-5.77,13.67-8.7,22.86-9.67,8.44-.89,13.5-6.33,21-9.32,7.32-2.9,15.45-1.83,22.26-6.32,1.93-1.27,2-5-.72-5.48a149.23,149.23,0,0,0-48.73-.2c-7.81,1.28-15.47,4-23.47,3.24s-15.29-1.34-23.28.83c-3.73,1-2.15,6.79,1.59,5.78Z"/><path class="cls-2" d="M887.39,291.5c6-6,12.75-8.4,20.09-12.14,6.35-3.23,11.13-8.66,16.5-13.21A140.43,140.43,0,0,1,965.44,242l-3.38-4.41c-3.41,6.91-11,10-15.67,15.92-2.4,3.05-3.89,6.59-5.75,10-2.46,4.46-5.88,6.84-9.88,9.8C918,282.71,916.54,299.3,909,312.3c-1.93,3.35,3.25,6.37,5.18,3,3.85-6.66,6.07-14,8.92-21.08a47.22,47.22,0,0,1,5.6-10.64c2.73-3.69,6.37-5.92,10-8.66,6.47-4.93,7.88-12.68,13-18.54,5-5.65,12.06-8.8,15.51-15.8,1-2.11-.74-5.4-3.39-4.41a149.34,149.34,0,0,0-41.46,23.53c-6.42,5.18-11.91,11.74-19.52,15.2-7.42,3.37-13.89,6.45-19.72,12.34-2.72,2.74,1.52,7,4.24,4.24Z"/><path class="cls-2" d="M695.63,188.58c2.16-8.17,6.84-13.65,11.31-20.55,4-6.2,5.49-13.64,8-20.5a140.58,140.58,0,0,1,23.51-40.87l-5.12-2.12c.44,7.84-4.68,14.39-5.66,22-.53,4.17.2,8.27.07,12.45-.14,4.56-1.93,8.08-3.71,12.17-6.31,14.52.7,29.66.75,44.59,0,3.86,6,3.87,6,0,0-7.75-1.79-15.24-2.85-22.89a43.76,43.76,0,0,1-.25-13.32c.67-3.9,2.53-7.26,4.05-10.85,3.22-7.62.53-15.18,2.13-23,1.51-7.32,5.9-13.45,5.47-21.19-.13-2.34-3.35-4.28-5.12-2.12a149.4,149.4,0,0,0-23.84,40.3c-3,7.59-4.44,16.22-9.11,23-4.82,7-9.2,12.9-11.42,21.27-1,3.73,4.8,5.33,5.79,1.59Z"/></g></g></svg>